<?xml version="1.0" standalone="no"?>
 <!DOCTYPE svg PUBLIC "-//W3C//DTD SVG 1.1//EN" 
 "http://www.w3.org/Graphics/SVG/1.1/DTD/svg11.dtd"> 
<svg xmlns="http://www.w3.org/2000/svg" version="1.1" 
    width="29.7002cm" height="21.0007cm" viewBox="0 0 116930 82680 ">
<title>SVG Picture created as eNo-F_SilkS.svg date 2019/07/26 17:31:49 </title>
  <desc>Picture generated by PCBNEW </desc>
<g style="fill:#000000; fill-opacity:1;stroke:#000000; stroke-opacity:1;
stroke-linecap:round; stroke-linejoin:round; "
 transform="translate(0 0) scale(1 1)">
</g>
<g style="fill:#000000; fill-opacity:0.0; 
stroke:#000000; stroke-width:-0.000393701; stroke-opacity:1; 
stroke-linecap:round; stroke-linejoin:round;">
</g>
<g style="fill:#000000; fill-opacity:0.0; 
stroke:#000000; stroke-width:39.3701; stroke-opacity:1; 
stroke-linecap:round; stroke-linejoin:round;">
</g>
<g style="fill:#000000; fill-opacity:0.0; 
stroke:#000000; stroke-width:59.0551; stroke-opacity:1; 
stroke-linecap:round; stroke-linejoin:round;">
<rect x="69685.9" y="65357.2" width="42519.7" height="12598.4" rx="0" />
</g>
<g style="fill:#000000; fill-opacity:0.0; 
stroke:#000000; stroke-width:39.3701; stroke-opacity:1; 
stroke-linecap:round; stroke-linejoin:round;">
</g>
<g style="fill:#000000; fill-opacity:0.0; 
stroke:#000000; stroke-width:59.0551; stroke-opacity:1; 
stroke-linecap:round; stroke-linejoin:round;">
<rect x="3937.01" y="3937.01" width="109056" height="74806" rx="0" />
</g>
<g style="fill:#000000; fill-opacity:0.0; 
stroke:#000000; stroke-width:39.3701; stroke-opacity:1; 
stroke-linecap:round; stroke-linejoin:round;">
</g>
<g style="fill:#000000; fill-opacity:0.0; 
stroke:#000000; stroke-width:59.0551; stroke-opacity:1; 
stroke-linecap:round; stroke-linejoin:round;">
<rect x="4724.41" y="4724.41" width="107481" height="73231.2" rx="0" />
</g>
<g style="fill:#000000; fill-opacity:0.0; 
stroke:#000000; stroke-width:39.3701; stroke-opacity:1; 
stroke-linecap:round; stroke-linejoin:round;">
</g>
<g style="fill:#000000; fill-opacity:0.0; 
stroke:#000000; stroke-width:59.0551; stroke-opacity:1; 
stroke-linecap:round; stroke-linejoin:round;">
<path d="M23622 4724
L23622 3937
" />
</g>
<g style="fill:#000000; fill-opacity:0.0; 
stroke:#000000; stroke-width:39.3701; stroke-opacity:1; 
stroke-linecap:round; stroke-linejoin:round;">
</g>
<g style="fill:#000000; fill-opacity:0.0; 
stroke:#000000; stroke-width:59.0551; stroke-opacity:1; 
stroke-linecap:round; stroke-linejoin:round;">
<path d="M43307 4724
L43307 3937
" />
</g>
<g style="fill:#000000; fill-opacity:0.0; 
stroke:#000000; stroke-width:39.3701; stroke-opacity:1; 
stroke-linecap:round; stroke-linejoin:round;">
</g>
<g style="fill:#000000; fill-opacity:0.0; 
stroke:#000000; stroke-width:59.0551; stroke-opacity:1; 
stroke-linecap:round; stroke-linejoin:round;">
<path d="M62992 4724
L62992 3937
" />
</g>
<g style="fill:#000000; fill-opacity:0.0; 
stroke:#000000; stroke-width:39.3701; stroke-opacity:1; 
stroke-linecap:round; stroke-linejoin:round;">
</g>
<g style="fill:#000000; fill-opacity:0.0; 
stroke:#000000; stroke-width:59.0551; stroke-opacity:1; 
stroke-linecap:round; stroke-linejoin:round;">
<path d="M82677 4724
L82677 3937
" />
</g>
<g style="fill:#000000; fill-opacity:0.0; 
stroke:#000000; stroke-width:39.3701; stroke-opacity:1; 
stroke-linecap:round; stroke-linejoin:round;">
</g>
<g style="fill:#000000; fill-opacity:0.0; 
stroke:#000000; stroke-width:59.0551; stroke-opacity:1; 
stroke-linecap:round; stroke-linejoin:round;">
<path d="M102362 4724
L102362 3937
" />
</g>
<g style="fill:#000000; fill-opacity:0.0; 
stroke:#000000; stroke-width:39.3701; stroke-opacity:1; 
stroke-linecap:round; stroke-linejoin:round;">
</g>
<g style="fill:#000000; fill-opacity:0.0; 
stroke:#000000; stroke-width:59.0551; stroke-opacity:1; 
stroke-linecap:round; stroke-linejoin:round;">
<path d="M14199 4562
L13906 4562
" />
<path d="M14052 4562
L14052 4050
L14004 4123
L13955 4172
L13906 4196
" />
</g>
<g style="fill:#000000; fill-opacity:0.0; 
stroke:#000000; stroke-width:39.3701; stroke-opacity:1; 
stroke-linecap:round; stroke-linejoin:round;">
</g>
<g style="fill:#000000; fill-opacity:0.0; 
stroke:#000000; stroke-width:59.0551; stroke-opacity:1; 
stroke-linecap:round; stroke-linejoin:round;">
<path d="M33591 4099
L33615 4074
L33664 4050
L33786 4050
L33835 4074
L33859 4099
L33884 4147
L33884 4196
L33859 4269
L33567 4562
L33884 4562
" />
</g>
<g style="fill:#000000; fill-opacity:0.0; 
stroke:#000000; stroke-width:39.3701; stroke-opacity:1; 
stroke-linecap:round; stroke-linejoin:round;">
</g>
<g style="fill:#000000; fill-opacity:0.0; 
stroke:#000000; stroke-width:59.0551; stroke-opacity:1; 
stroke-linecap:round; stroke-linejoin:round;">
<path d="M53252 4050
L53569 4050
L53398 4245
L53471 4245
L53520 4269
L53544 4294
L53569 4342
L53569 4464
L53544 4513
L53520 4537
L53471 4562
L53325 4562
L53276 4537
L53252 4513
" />
</g>
<g style="fill:#000000; fill-opacity:0.0; 
stroke:#000000; stroke-width:39.3701; stroke-opacity:1; 
stroke-linecap:round; stroke-linejoin:round;">
</g>
<g style="fill:#000000; fill-opacity:0.0; 
stroke:#000000; stroke-width:59.0551; stroke-opacity:1; 
stroke-linecap:round; stroke-linejoin:round;">
<path d="M73205 4221
L73205 4562
" />
<path d="M73083 4026
L72961 4391
L73278 4391
" />
</g>
<g style="fill:#000000; fill-opacity:0.0; 
stroke:#000000; stroke-width:39.3701; stroke-opacity:1; 
stroke-linecap:round; stroke-linejoin:round;">
</g>
<g style="fill:#000000; fill-opacity:0.0; 
stroke:#000000; stroke-width:59.0551; stroke-opacity:1; 
stroke-linecap:round; stroke-linejoin:round;">
<path d="M92914 4050
L92671 4050
L92646 4294
L92671 4269
L92719 4245
L92841 4245
L92890 4269
L92914 4294
L92939 4342
L92939 4464
L92914 4513
L92890 4537
L92841 4562
L92719 4562
L92671 4537
L92646 4513
" />
</g>
<g style="fill:#000000; fill-opacity:0.0; 
stroke:#000000; stroke-width:39.3701; stroke-opacity:1; 
stroke-linecap:round; stroke-linejoin:round;">
</g>
<g style="fill:#000000; fill-opacity:0.0; 
stroke:#000000; stroke-width:59.0551; stroke-opacity:1; 
stroke-linecap:round; stroke-linejoin:round;">
<path d="M112575 4050
L112477 4050
L112429 4074
L112404 4099
L112356 4172
L112331 4269
L112331 4464
L112356 4513
L112380 4537
L112429 4562
L112526 4562
L112575 4537
L112599 4513
L112624 4464
L112624 4342
L112599 4294
L112575 4269
L112526 4245
L112429 4245
L112380 4269
L112356 4294
L112331 4342
" />
</g>
<g style="fill:#000000; fill-opacity:0.0; 
stroke:#000000; stroke-width:39.3701; stroke-opacity:1; 
stroke-linecap:round; stroke-linejoin:round;">
</g>
<g style="fill:#000000; fill-opacity:0.0; 
stroke:#000000; stroke-width:59.0551; stroke-opacity:1; 
stroke-linecap:round; stroke-linejoin:round;">
<path d="M23622 77955
L23622 78742
" />
</g>
<g style="fill:#000000; fill-opacity:0.0; 
stroke:#000000; stroke-width:39.3701; stroke-opacity:1; 
stroke-linecap:round; stroke-linejoin:round;">
</g>
<g style="fill:#000000; fill-opacity:0.0; 
stroke:#000000; stroke-width:59.0551; stroke-opacity:1; 
stroke-linecap:round; stroke-linejoin:round;">
<path d="M43307 77955
L43307 78742
" />
</g>
<g style="fill:#000000; fill-opacity:0.0; 
stroke:#000000; stroke-width:39.3701; stroke-opacity:1; 
stroke-linecap:round; stroke-linejoin:round;">
</g>
<g style="fill:#000000; fill-opacity:0.0; 
stroke:#000000; stroke-width:59.0551; stroke-opacity:1; 
stroke-linecap:round; stroke-linejoin:round;">
<path d="M62992 77955
L62992 78742
" />
</g>
<g style="fill:#000000; fill-opacity:0.0; 
stroke:#000000; stroke-width:39.3701; stroke-opacity:1; 
stroke-linecap:round; stroke-linejoin:round;">
</g>
<g style="fill:#000000; fill-opacity:0.0; 
stroke:#000000; stroke-width:59.0551; stroke-opacity:1; 
stroke-linecap:round; stroke-linejoin:round;">
<path d="M82677 77955
L82677 78742
" />
</g>
<g style="fill:#000000; fill-opacity:0.0; 
stroke:#000000; stroke-width:39.3701; stroke-opacity:1; 
stroke-linecap:round; stroke-linejoin:round;">
</g>
<g style="fill:#000000; fill-opacity:0.0; 
stroke:#000000; stroke-width:59.0551; stroke-opacity:1; 
stroke-linecap:round; stroke-linejoin:round;">
<path d="M102362 77955
L102362 78742
" />
</g>
<g style="fill:#000000; fill-opacity:0.0; 
stroke:#000000; stroke-width:39.3701; stroke-opacity:1; 
stroke-linecap:round; stroke-linejoin:round;">
</g>
<g style="fill:#000000; fill-opacity:0.0; 
stroke:#000000; stroke-width:59.0551; stroke-opacity:1; 
stroke-linecap:round; stroke-linejoin:round;">
<path d="M14199 78580
L13906 78580
" />
<path d="M14052 78580
L14052 78069
L14004 78142
L13955 78190
L13906 78215
" />
</g>
<g style="fill:#000000; fill-opacity:0.0; 
stroke:#000000; stroke-width:39.3701; stroke-opacity:1; 
stroke-linecap:round; stroke-linejoin:round;">
</g>
<g style="fill:#000000; fill-opacity:0.0; 
stroke:#000000; stroke-width:59.0551; stroke-opacity:1; 
stroke-linecap:round; stroke-linejoin:round;">
<path d="M33591 78117
L33615 78093
L33664 78069
L33786 78069
L33835 78093
L33859 78117
L33884 78166
L33884 78215
L33859 78288
L33567 78580
L33884 78580
" />
</g>
<g style="fill:#000000; fill-opacity:0.0; 
stroke:#000000; stroke-width:39.3701; stroke-opacity:1; 
stroke-linecap:round; stroke-linejoin:round;">
</g>
<g style="fill:#000000; fill-opacity:0.0; 
stroke:#000000; stroke-width:59.0551; stroke-opacity:1; 
stroke-linecap:round; stroke-linejoin:round;">
<path d="M53252 78069
L53569 78069
L53398 78263
L53471 78263
L53520 78288
L53544 78312
L53569 78361
L53569 78483
L53544 78532
L53520 78556
L53471 78580
L53325 78580
L53276 78556
L53252 78532
" />
</g>
<g style="fill:#000000; fill-opacity:0.0; 
stroke:#000000; stroke-width:39.3701; stroke-opacity:1; 
stroke-linecap:round; stroke-linejoin:round;">
</g>
<g style="fill:#000000; fill-opacity:0.0; 
stroke:#000000; stroke-width:59.0551; stroke-opacity:1; 
stroke-linecap:round; stroke-linejoin:round;">
<path d="M73205 78239
L73205 78580
" />
<path d="M73083 78044
L72961 78410
L73278 78410
" />
</g>
<g style="fill:#000000; fill-opacity:0.0; 
stroke:#000000; stroke-width:39.3701; stroke-opacity:1; 
stroke-linecap:round; stroke-linejoin:round;">
</g>
<g style="fill:#000000; fill-opacity:0.0; 
stroke:#000000; stroke-width:59.0551; stroke-opacity:1; 
stroke-linecap:round; stroke-linejoin:round;">
<path d="M92914 78069
L92671 78069
L92646 78312
L92671 78288
L92719 78263
L92841 78263
L92890 78288
L92914 78312
L92939 78361
L92939 78483
L92914 78532
L92890 78556
L92841 78580
L92719 78580
L92671 78556
L92646 78532
" />
</g>
<g style="fill:#000000; fill-opacity:0.0; 
stroke:#000000; stroke-width:39.3701; stroke-opacity:1; 
stroke-linecap:round; stroke-linejoin:round;">
</g>
<g style="fill:#000000; fill-opacity:0.0; 
stroke:#000000; stroke-width:59.0551; stroke-opacity:1; 
stroke-linecap:round; stroke-linejoin:round;">
<path d="M112575 78069
L112477 78069
L112429 78093
L112404 78117
L112356 78190
L112331 78288
L112331 78483
L112356 78532
L112380 78556
L112429 78580
L112526 78580
L112575 78556
L112599 78532
L112624 78483
L112624 78361
L112599 78312
L112575 78288
L112526 78263
L112429 78263
L112380 78288
L112356 78312
L112331 78361
" />
</g>
<g style="fill:#000000; fill-opacity:0.0; 
stroke:#000000; stroke-width:39.3701; stroke-opacity:1; 
stroke-linecap:round; stroke-linejoin:round;">
</g>
<g style="fill:#000000; fill-opacity:0.0; 
stroke:#000000; stroke-width:59.0551; stroke-opacity:1; 
stroke-linecap:round; stroke-linejoin:round;">
<path d="M3937 23622
L4724 23622
" />
</g>
<g style="fill:#000000; fill-opacity:0.0; 
stroke:#000000; stroke-width:39.3701; stroke-opacity:1; 
stroke-linecap:round; stroke-linejoin:round;">
</g>
<g style="fill:#000000; fill-opacity:0.0; 
stroke:#000000; stroke-width:59.0551; stroke-opacity:1; 
stroke-linecap:round; stroke-linejoin:round;">
<path d="M3937 43307
L4724 43307
" />
</g>
<g style="fill:#000000; fill-opacity:0.0; 
stroke:#000000; stroke-width:39.3701; stroke-opacity:1; 
stroke-linecap:round; stroke-linejoin:round;">
</g>
<g style="fill:#000000; fill-opacity:0.0; 
stroke:#000000; stroke-width:59.0551; stroke-opacity:1; 
stroke-linecap:round; stroke-linejoin:round;">
<path d="M3937 62992
L4724 62992
" />
</g>
<g style="fill:#000000; fill-opacity:0.0; 
stroke:#000000; stroke-width:39.3701; stroke-opacity:1; 
stroke-linecap:round; stroke-linejoin:round;">
</g>
<g style="fill:#000000; fill-opacity:0.0; 
stroke:#000000; stroke-width:59.0551; stroke-opacity:1; 
stroke-linecap:round; stroke-linejoin:round;">
<path d="M4208 13864
L4452 13864
" />
<path d="M4160 14011
L4330 13499
L4501 14011
" />
</g>
<g style="fill:#000000; fill-opacity:0.0; 
stroke:#000000; stroke-width:39.3701; stroke-opacity:1; 
stroke-linecap:round; stroke-linejoin:round;">
</g>
<g style="fill:#000000; fill-opacity:0.0; 
stroke:#000000; stroke-width:59.0551; stroke-opacity:1; 
stroke-linecap:round; stroke-linejoin:round;">
<path d="M4367 33428
L4440 33452
L4464 33476
L4489 33525
L4489 33598
L4464 33647
L4440 33671
L4391 33696
L4196 33696
L4196 33184
L4367 33184
L4416 33208
L4440 33233
L4464 33281
L4464 33330
L4440 33379
L4416 33403
L4367 33428
L4196 33428
" />
</g>
<g style="fill:#000000; fill-opacity:0.0; 
stroke:#000000; stroke-width:39.3701; stroke-opacity:1; 
stroke-linecap:round; stroke-linejoin:round;">
</g>
<g style="fill:#000000; fill-opacity:0.0; 
stroke:#000000; stroke-width:59.0551; stroke-opacity:1; 
stroke-linecap:round; stroke-linejoin:round;">
<path d="M4489 53332
L4464 53356
L4391 53381
L4342 53381
L4269 53356
L4221 53308
L4196 53259
L4172 53161
L4172 53088
L4196 52991
L4221 52942
L4269 52893
L4342 52869
L4391 52869
L4464 52893
L4489 52918
" />
</g>
<g style="fill:#000000; fill-opacity:0.0; 
stroke:#000000; stroke-width:39.3701; stroke-opacity:1; 
stroke-linecap:round; stroke-linejoin:round;">
</g>
<g style="fill:#000000; fill-opacity:0.0; 
stroke:#000000; stroke-width:59.0551; stroke-opacity:1; 
stroke-linecap:round; stroke-linejoin:round;">
<path d="M4196 73066
L4196 72554
L4318 72554
L4391 72578
L4440 72627
L4464 72676
L4489 72773
L4489 72846
L4464 72944
L4440 72993
L4391 73041
L4318 73066
L4196 73066
" />
</g>
<g style="fill:#000000; fill-opacity:0.0; 
stroke:#000000; stroke-width:39.3701; stroke-opacity:1; 
stroke-linecap:round; stroke-linejoin:round;">
</g>
<g style="fill:#000000; fill-opacity:0.0; 
stroke:#000000; stroke-width:59.0551; stroke-opacity:1; 
stroke-linecap:round; stroke-linejoin:round;">
<path d="M112992 23622
L112205 23622
" />
</g>
<g style="fill:#000000; fill-opacity:0.0; 
stroke:#000000; stroke-width:39.3701; stroke-opacity:1; 
stroke-linecap:round; stroke-linejoin:round;">
</g>
<g style="fill:#000000; fill-opacity:0.0; 
stroke:#000000; stroke-width:59.0551; stroke-opacity:1; 
stroke-linecap:round; stroke-linejoin:round;">
<path d="M112992 43307
L112205 43307
" />
</g>
<g style="fill:#000000; fill-opacity:0.0; 
stroke:#000000; stroke-width:39.3701; stroke-opacity:1; 
stroke-linecap:round; stroke-linejoin:round;">
</g>
<g style="fill:#000000; fill-opacity:0.0; 
stroke:#000000; stroke-width:59.0551; stroke-opacity:1; 
stroke-linecap:round; stroke-linejoin:round;">
<path d="M112992 62992
L112205 62992
" />
</g>
<g style="fill:#000000; fill-opacity:0.0; 
stroke:#000000; stroke-width:39.3701; stroke-opacity:1; 
stroke-linecap:round; stroke-linejoin:round;">
</g>
<g style="fill:#000000; fill-opacity:0.0; 
stroke:#000000; stroke-width:59.0551; stroke-opacity:1; 
stroke-linecap:round; stroke-linejoin:round;">
<path d="M112477 13864
L112721 13864
" />
<path d="M112428 14011
L112599 13499
L112769 14011
" />
</g>
<g style="fill:#000000; fill-opacity:0.0; 
stroke:#000000; stroke-width:39.3701; stroke-opacity:1; 
stroke-linecap:round; stroke-linejoin:round;">
</g>
<g style="fill:#000000; fill-opacity:0.0; 
stroke:#000000; stroke-width:59.0551; stroke-opacity:1; 
stroke-linecap:round; stroke-linejoin:round;">
<path d="M112635 33428
L112708 33452
L112733 33476
L112757 33525
L112757 33598
L112733 33647
L112708 33671
L112660 33696
L112465 33696
L112465 33184
L112635 33184
L112684 33208
L112708 33233
L112733 33281
L112733 33330
L112708 33379
L112684 33403
L112635 33428
L112465 33428
" />
</g>
<g style="fill:#000000; fill-opacity:0.0; 
stroke:#000000; stroke-width:39.3701; stroke-opacity:1; 
stroke-linecap:round; stroke-linejoin:round;">
</g>
<g style="fill:#000000; fill-opacity:0.0; 
stroke:#000000; stroke-width:59.0551; stroke-opacity:1; 
stroke-linecap:round; stroke-linejoin:round;">
<path d="M112757 53332
L112733 53356
L112660 53381
L112611 53381
L112538 53356
L112489 53308
L112465 53259
L112440 53161
L112440 53088
L112465 52991
L112489 52942
L112538 52893
L112611 52869
L112660 52869
L112733 52893
L112757 52918
" />
</g>
<g style="fill:#000000; fill-opacity:0.0; 
stroke:#000000; stroke-width:39.3701; stroke-opacity:1; 
stroke-linecap:round; stroke-linejoin:round;">
</g>
<g style="fill:#000000; fill-opacity:0.0; 
stroke:#000000; stroke-width:59.0551; stroke-opacity:1; 
stroke-linecap:round; stroke-linejoin:round;">
<path d="M112465 73066
L112465 72554
L112587 72554
L112660 72578
L112708 72627
L112733 72676
L112757 72773
L112757 72846
L112733 72944
L112708 72993
L112660 73041
L112587 73066
L112465 73066
" />
</g>
<g style="fill:#000000; fill-opacity:0.0; 
stroke:#000000; stroke-width:39.3701; stroke-opacity:1; 
stroke-linecap:round; stroke-linejoin:round;">
</g>
<g style="fill:#000000; fill-opacity:0.0; 
stroke:#000000; stroke-width:59.0551; stroke-opacity:1; 
stroke-linecap:round; stroke-linejoin:round;">
<path d="M78911 76293
L78911 75703
L79051 75703
L79136 75731
L79192 75787
L79220 75843
L79248 75956
L79248 76040
L79220 76153
L79192 76209
L79136 76265
L79051 76293
L78911 76293
" />
<path d="M79754 76293
L79754 75984
L79726 75928
L79670 75899
L79557 75899
L79501 75928
" />
<path d="M79754 76265
L79698 76293
L79557 76293
L79501 76265
L79473 76209
L79473 76153
L79501 76096
L79557 76068
L79698 76068
L79754 76040
" />
<path d="M79951 75899
L80176 75899
" />
<path d="M80036 75703
L80036 76209
L80064 76265
L80120 76293
L80176 76293
" />
<path d="M80598 76265
L80542 76293
L80429 76293
L80373 76265
L80345 76209
L80345 75984
L80373 75928
L80429 75899
L80542 75899
L80598 75928
L80626 75984
L80626 76040
L80345 76096
" />
<path d="M80879 76237
L80907 76265
L80879 76293
L80851 76265
L80879 76237
L80879 76293
" />
<path d="M80879 75928
L80907 75956
L80879 75984
L80851 75956
L80879 75928
L80879 75984
" />
</g>
<g style="fill:#000000; fill-opacity:0.0; 
stroke:#000000; stroke-width:39.3701; stroke-opacity:1; 
stroke-linecap:round; stroke-linejoin:round;">
</g>
<g style="fill:#000000; fill-opacity:0.0; 
stroke:#000000; stroke-width:59.0551; stroke-opacity:1; 
stroke-linecap:round; stroke-linejoin:round;">
<path d="M69685 76577
L112205 76577
" />
</g>
<g style="fill:#000000; fill-opacity:0.0; 
stroke:#000000; stroke-width:39.3701; stroke-opacity:1; 
stroke-linecap:round; stroke-linejoin:round;">
</g>
<g style="fill:#000000; fill-opacity:0.0; 
stroke:#000000; stroke-width:59.0551; stroke-opacity:1; 
stroke-linecap:round; stroke-linejoin:round;">
<path d="M70249 77395
L70249 76805
" />
<path d="M70587 77395
L70334 77058
" />
<path d="M70587 76805
L70249 77142
" />
<path d="M70840 77395
L70840 77002
" />
<path d="M70840 76805
L70812 76833
L70840 76861
L70868 76833
L70840 76805
L70840 76861
" />
<path d="M71458 77339
L71430 77367
L71346 77395
L71290 77395
L71205 77367
L71149 77311
L71121 77255
L71093 77142
L71093 77058
L71121 76946
L71149 76889
L71205 76833
L71290 76805
L71346 76805
L71430 76833
L71458 76861
" />
<path d="M71965 77395
L71965 77086
L71937 77030
L71880 77002
L71768 77002
L71712 77030
" />
<path d="M71965 77367
L71908 77395
L71768 77395
L71712 77367
L71683 77311
L71683 77255
L71712 77199
L71768 77171
L71908 77171
L71965 77142
" />
<path d="M72499 77395
L72499 76805
" />
<path d="M72499 77367
L72443 77395
L72330 77395
L72274 77367
L72246 77339
L72218 77283
L72218 77114
L72246 77058
L72274 77030
L72330 77002
L72443 77002
L72499 77030
" />
<path d="M73230 77086
L73427 77086
" />
<path d="M73511 77395
L73230 77395
L73230 76805
L73511 76805
" />
<path d="M73764 77339
L73793 77367
L73764 77395
L73736 77367
L73764 77339
L73764 77395
" />
<path d="M74046 77395
L74046 76805
L74186 76805
L74271 76833
L74327 76889
L74355 76946
L74383 77058
L74383 77142
L74355 77255
L74327 77311
L74271 77367
L74186 77395
L74046 77395
" />
<path d="M74636 77339
L74664 77367
L74636 77395
L74608 77367
L74636 77339
L74636 77395
" />
<path d="M74889 77227
L75171 77227
" />
<path d="M74833 77395
L75030 76805
L75227 77395
" />
<path d="M75424 77339
L75452 77367
L75424 77395
L75395 77367
L75424 77339
L75424 77395
" />
<path d="M76605 77395
L76605 76805
" />
<path d="M76661 77171
L76830 77395
" />
<path d="M76830 77002
L76605 77227
" />
<path d="M77083 77395
L77083 77002
" />
<path d="M77083 76805
L77055 76833
L77083 76861
L77111 76833
L77083 76805
L77083 76861
" />
<path d="M77617 77367
L77561 77395
L77448 77395
L77392 77367
L77364 77339
L77336 77283
L77336 77114
L77364 77058
L77392 77030
L77448 77002
L77561 77002
L77617 77030
" />
<path d="M78123 77395
L78123 77086
L78095 77030
L78039 77002
L77926 77002
L77870 77030
" />
<path d="M78123 77367
L78067 77395
L77926 77395
L77870 77367
L77842 77311
L77842 77255
L77870 77199
L77926 77171
L78067 77171
L78123 77142
" />
<path d="M78658 77395
L78658 76805
" />
<path d="M78658 77367
L78601 77395
L78489 77395
L78433 77367
L78404 77339
L78376 77283
L78376 77114
L78404 77058
L78433 77030
L78489 77002
L78601 77002
L78658 77030
" />
<path d="M79670 76805
L79389 76805
L79361 77086
L79389 77058
L79445 77030
L79586 77030
L79642 77058
L79670 77086
L79698 77142
L79698 77283
L79670 77339
L79642 77367
L79586 77395
L79445 77395
L79389 77367
L79361 77339
" />
<path d="M79951 77339
L79979 77367
L79951 77395
L79923 77367
L79951 77339
L79951 77395
" />
<path d="M80542 77395
L80204 77395
" />
<path d="M80373 77395
L80373 76805
L80317 76889
L80260 76946
L80204 76974
" />
<path d="M80795 77339
L80823 77367
L80795 77395
L80767 77367
L80795 77339
L80795 77395
" />
<path d="M81048 76861
L81076 76833
L81132 76805
L81273 76805
L81329 76833
L81357 76861
L81385 76917
L81385 76974
L81357 77058
L81020 77395
L81385 77395
" />
</g>
<g style="fill:#000000; fill-opacity:0.0; 
stroke:#000000; stroke-width:39.3701; stroke-opacity:1; 
stroke-linecap:round; stroke-linejoin:round;">
</g>
<g style="fill:#000000; fill-opacity:0.0; 
stroke:#000000; stroke-width:59.0551; stroke-opacity:1; 
stroke-linecap:round; stroke-linejoin:round;">
<path d="M69685 75396
L112205 75396
" />
</g>
<g style="fill:#000000; fill-opacity:0.0; 
stroke:#000000; stroke-width:39.3701; stroke-opacity:1; 
stroke-linecap:round; stroke-linejoin:round;">
</g>
<g style="fill:#000000; fill-opacity:0.0; 
stroke:#000000; stroke-width:118.11; stroke-opacity:1; 
stroke-linecap:round; stroke-linejoin:round;">
<path d="M104099 76293
L103902 76012
" />
<path d="M103761 76293
L103761 75703
L103986 75703
L104042 75731
L104070 75759
L104099 75815
L104099 75899
L104070 75956
L104042 75984
L103986 76012
L103761 76012
" />
<path d="M104577 76265
L104520 76293
L104408 76293
L104352 76265
L104323 76209
L104323 75984
L104352 75928
L104408 75899
L104520 75899
L104577 75928
L104605 75984
L104605 76040
L104323 76096
" />
<path d="M104802 75899
L104942 76293
L105083 75899
" />
<path d="M105308 76237
L105336 76265
L105308 76293
L105280 76265
L105308 76237
L105308 76293
" />
<path d="M105308 75928
L105336 75956
L105308 75984
L105280 75956
L105308 75928
L105308 75984
" />
</g>
<g style="fill:#000000; fill-opacity:0.0; 
stroke:#000000; stroke-width:39.3701; stroke-opacity:1; 
stroke-linecap:round; stroke-linejoin:round;">
</g>
<g style="fill:#000000; fill-opacity:0.0; 
stroke:#000000; stroke-width:59.0551; stroke-opacity:1; 
stroke-linecap:round; stroke-linejoin:round;">
<path d="M70221 76265
L70305 76293
L70446 76293
L70502 76265
L70530 76237
L70559 76181
L70559 76124
L70530 76068
L70502 76040
L70446 76012
L70334 75984
L70277 75956
L70249 75928
L70221 75871
L70221 75815
L70249 75759
L70277 75731
L70334 75703
L70474 75703
L70559 75731
" />
<path d="M70812 76293
L70812 75899
" />
<path d="M70812 75703
L70784 75731
L70812 75759
L70840 75731
L70812 75703
L70812 75759
" />
<path d="M71037 75899
L71346 75899
L71037 76293
L71346 76293
" />
<path d="M71796 76265
L71740 76293
L71627 76293
L71571 76265
L71543 76209
L71543 75984
L71571 75928
L71627 75899
L71740 75899
L71796 75928
L71824 75984
L71824 76040
L71543 76096
" />
<path d="M72077 76237
L72105 76265
L72077 76293
L72049 76265
L72077 76237
L72077 76293
" />
<path d="M72077 75928
L72105 75956
L72077 75984
L72049 75956
L72077 75928
L72077 75984
" />
<path d="M72780 76124
L73061 76124
" />
<path d="M72724 76293
L72921 75703
L73118 76293
" />
<path d="M73568 75899
L73568 76293
" />
<path d="M73427 75674
L73286 76096
L73652 76096
" />
</g>
<g style="fill:#000000; fill-opacity:0.0; 
stroke:#000000; stroke-width:39.3701; stroke-opacity:1; 
stroke-linecap:round; stroke-linejoin:round;">
</g>
<g style="fill:#000000; fill-opacity:0.0; 
stroke:#000000; stroke-width:59.0551; stroke-opacity:1; 
stroke-linecap:round; stroke-linejoin:round;">
<path d="M103714 77395
L103714 76805
" />
<path d="M104248 77395
L104248 76805
" />
<path d="M104248 77367
L104192 77395
L104079 77395
L104023 77367
L103995 77339
L103967 77283
L103967 77114
L103995 77058
L104023 77030
L104079 77002
L104192 77002
L104248 77030
" />
<path d="M104529 77339
L104557 77367
L104529 77395
L104501 77367
L104529 77339
L104529 77395
" />
<path d="M104529 77030
L104557 77058
L104529 77086
L104501 77058
L104529 77030
L104529 77086
" />
<path d="M105570 77395
L105232 77395
" />
<path d="M105401 77395
L105401 76805
L105345 76889
L105289 76946
L105232 76974
" />
<path d="M106245 76777
L105739 77536
" />
<path d="M106751 77395
L106413 77395
" />
<path d="M106582 77395
L106582 76805
L106526 76889
L106470 76946
L106413 76974
" />
</g>
<g style="fill:#000000; fill-opacity:0.0; 
stroke:#000000; stroke-width:39.3701; stroke-opacity:1; 
stroke-linecap:round; stroke-linejoin:round;">
</g>
<g style="fill:#000000; fill-opacity:0.0; 
stroke:#000000; stroke-width:59.0551; stroke-opacity:1; 
stroke-linecap:round; stroke-linejoin:round;">
<path d="M69685 73821
L112205 73821
" />
</g>
<g style="fill:#000000; fill-opacity:0.0; 
stroke:#000000; stroke-width:39.3701; stroke-opacity:1; 
stroke-linecap:round; stroke-linejoin:round;">
</g>
<g style="fill:#000000; fill-opacity:0.0; 
stroke:#000000; stroke-width:157.48; stroke-opacity:1; 
stroke-linecap:round; stroke-linejoin:round;">
<path d="M70360 74099
L70810 74099
" />
<path d="M70486 74886
L70585 74099
" />
<path d="M70974 74886
L71039 74361
" />
<path d="M71072 74099
L71030 74136
L71063 74174
L71105 74136
L71072 74099
L71063 74174
" />
<path d="M71302 74361
L71602 74361
" />
<path d="M71447 74099
L71363 74774
L71391 74849
L71461 74886
L71536 74886
" />
<path d="M71911 74886
L71841 74849
L71813 74774
L71897 74099
" />
<path d="M72516 74849
L72436 74886
L72286 74886
L72216 74849
L72187 74774
L72225 74474
L72272 74399
L72352 74361
L72501 74361
L72572 74399
L72600 74474
L72591 74549
L72206 74624
" />
<path d="M72895 74811
L72928 74849
L72886 74886
L72853 74849
L72895 74811
L72886 74886
" />
<path d="M72947 74399
L72980 74436
L72937 74474
L72905 74436
L72947 74399
L72937 74474
" />
</g>
<g style="fill:#000000; fill-opacity:0.0; 
stroke:#000000; stroke-width:39.3701; stroke-opacity:1; 
stroke-linecap:round; stroke-linejoin:round;">
</g>
<g style="fill:#000000; fill-opacity:0.0; 
stroke:#000000; stroke-width:59.0551; stroke-opacity:1; 
stroke-linecap:round; stroke-linejoin:round;">
<path d="M70446 73070
L70249 73070
" />
<path d="M70249 73380
L70249 72789
L70530 72789
" />
<path d="M70755 73380
L70755 72986
" />
<path d="M70755 72789
L70727 72817
L70755 72845
L70784 72817
L70755 72789
L70755 72845
" />
<path d="M71121 73380
L71065 73352
L71037 73295
L71037 72789
" />
<path d="M71571 73352
L71515 73380
L71402 73380
L71346 73352
L71318 73295
L71318 73070
L71346 73014
L71402 72986
L71515 72986
L71571 73014
L71599 73070
L71599 73127
L71318 73183
" />
<path d="M71852 73323
L71880 73352
L71852 73380
L71824 73352
L71852 73323
L71852 73380
" />
<path d="M71852 73014
L71880 73042
L71852 73070
L71824 73042
L71852 73014
L71852 73070
" />
<path d="M72808 73352
L72752 73380
L72640 73380
L72583 73352
L72555 73295
L72555 73070
L72583 73014
L72640 72986
L72752 72986
L72808 73014
L72836 73070
L72836 73127
L72555 73183
" />
<path d="M73090 73380
L73090 72789
L73427 73380
L73427 72789
" />
<path d="M73793 73380
L73736 73352
L73708 73323
L73680 73267
L73680 73099
L73708 73042
L73736 73014
L73793 72986
L73877 72986
L73933 73014
L73961 73042
L73989 73099
L73989 73267
L73961 73323
L73933 73352
L73877 73380
L73793 73380
" />
<path d="M74242 73323
L74271 73352
L74242 73380
L74214 73352
L74242 73323
L74242 73380
" />
<path d="M74524 73380
L74524 72789
" />
<path d="M74580 73155
L74749 73380
" />
<path d="M74749 72986
L74524 73211
" />
<path d="M75002 73380
L75002 72986
" />
<path d="M75002 72789
L74974 72817
L75002 72845
L75030 72817
L75002 72789
L75002 72845
" />
<path d="M75536 73352
L75480 73380
L75367 73380
L75311 73352
L75283 73323
L75255 73267
L75255 73099
L75283 73042
L75311 73014
L75367 72986
L75480 72986
L75536 73014
" />
<path d="M76042 73380
L76042 73070
L76014 73014
L75958 72986
L75845 72986
L75789 73014
" />
<path d="M76042 73352
L75986 73380
L75845 73380
L75789 73352
L75761 73295
L75761 73239
L75789 73183
L75845 73155
L75986 73155
L76042 73127
" />
<path d="M76577 73380
L76577 72789
" />
<path d="M76577 73352
L76520 73380
L76408 73380
L76352 73352
L76323 73323
L76295 73267
L76295 73099
L76323 73042
L76352 73014
L76408 72986
L76520 72986
L76577 73014
" />
<path d="M76717 73436
L77167 73436
" />
<path d="M77308 72986
L77308 73577
" />
<path d="M77308 73014
L77364 72986
L77476 72986
L77533 73014
L77561 73042
L77589 73099
L77589 73267
L77561 73323
L77533 73352
L77476 73380
L77364 73380
L77308 73352
" />
<path d="M78095 73352
L78039 73380
L77926 73380
L77870 73352
L77842 73323
L77814 73267
L77814 73099
L77842 73042
L77870 73014
L77926 72986
L78039 72986
L78095 73014
" />
<path d="M78348 73380
L78348 72789
" />
<path d="M78348 73014
L78404 72986
L78517 72986
L78573 73014
L78601 73042
L78629 73099
L78629 73267
L78601 73323
L78573 73352
L78517 73380
L78404 73380
L78348 73352
" />
</g>
<g style="fill:#000000; fill-opacity:0.0; 
stroke:#000000; stroke-width:39.3701; stroke-opacity:1; 
stroke-linecap:round; stroke-linejoin:round;">
</g>
<g style="fill:#000000; fill-opacity:0.0; 
stroke:#000000; stroke-width:59.0551; stroke-opacity:1; 
stroke-linecap:round; stroke-linejoin:round;">
<path d="M69685 71459
L112205 71459
" />
</g>
<g style="fill:#000000; fill-opacity:0.0; 
stroke:#000000; stroke-width:39.3701; stroke-opacity:1; 
stroke-linecap:round; stroke-linejoin:round;">
</g>
<g style="fill:#000000; fill-opacity:0.0; 
stroke:#000000; stroke-width:59.0551; stroke-opacity:1; 
stroke-linecap:round; stroke-linejoin:round;">
<path d="M70221 72289
L70305 72317
L70446 72317
L70502 72289
L70530 72260
L70559 72204
L70559 72148
L70530 72092
L70502 72064
L70446 72036
L70334 72007
L70277 71979
L70249 71951
L70221 71895
L70221 71839
L70249 71782
L70277 71754
L70334 71726
L70474 71726
L70559 71754
" />
<path d="M70812 72317
L70812 71726
" />
<path d="M71065 72317
L71065 72007
L71037 71951
L70980 71923
L70896 71923
L70840 71951
L70812 71979
" />
<path d="M71571 72289
L71515 72317
L71402 72317
L71346 72289
L71318 72232
L71318 72007
L71346 71951
L71402 71923
L71515 71923
L71571 71951
L71599 72007
L71599 72064
L71318 72120
" />
<path d="M72077 72289
L72021 72317
L71908 72317
L71852 72289
L71824 72232
L71824 72007
L71852 71951
L71908 71923
L72021 71923
L72077 71951
L72105 72007
L72105 72064
L71824 72120
" />
<path d="M72274 71923
L72499 71923
" />
<path d="M72358 71726
L72358 72232
L72386 72289
L72443 72317
L72499 72317
" />
<path d="M72696 72260
L72724 72289
L72696 72317
L72668 72289
L72696 72260
L72696 72317
" />
<path d="M72696 71951
L72724 71979
L72696 72007
L72668 71979
L72696 71951
L72696 72007
" />
</g>
<g style="fill:#000000; fill-opacity:0.0; 
stroke:#000000; stroke-width:39.3701; stroke-opacity:1; 
stroke-linecap:round; stroke-linejoin:round;">
</g>
<g style="fill:#000000; fill-opacity:0.0; 
stroke:#000000; stroke-width:59.0551; stroke-opacity:1; 
stroke-linecap:round; stroke-linejoin:round;">
<path d="M77559 75396
L77559 76577
" />
</g>
<g style="fill:#000000; fill-opacity:0.0; 
stroke:#000000; stroke-width:39.3701; stroke-opacity:1; 
stroke-linecap:round; stroke-linejoin:round;">
</g>
<g style="fill:#000000; fill-opacity:0.0; 
stroke:#000000; stroke-width:59.0551; stroke-opacity:1; 
stroke-linecap:round; stroke-linejoin:round;">
<path d="M102756 75396
L102756 77955
" />
</g>
<g style="fill:#008484; fill-opacity:0.0; 
stroke:#008484; stroke-width:59.0551; stroke-opacity:1; 
stroke-linecap:round; stroke-linejoin:round;">
</g>
<g style="fill:#008484; fill-opacity:0.0; 
stroke:#008484; stroke-width:47.2441; stroke-opacity:1; 
stroke-linecap:round; stroke-linejoin:round;">
<path d="M81485 60470
L81485 59879
" />
<path d="M81485 60470
L84344 60470
" />
<path d="M81485 56729
L84344 56729
" />
<path d="M81485 57320
L81485 56729
" />
<circle cx="82731.5" cy="28961.5" r="1802.78" /> 
<path d="M80270 27359
L80270 26524
" />
<path d="M80270 26524
L85113 26524
" />
<path d="M85113 26524
L85113 27359
" />
<path d="M85113 28563
L85113 29327
" />
<path d="M85113 30532
L85113 31367
" />
<path d="M85113 31367
L80270 31367
" />
<path d="M80270 31367
L80270 30532
" />
<path d="M80270 29327
L80270 28563
" />
<path d="M51141 31837
L51141 31362
" />
<path d="M51858 31837
L51858 31362
" />
<path d="M51091.6 23374.6 A783.465 783.465 0.0 0 0 52364.2 23436.4 " />
<path d="M52364.2 22463.6 A783.465 783.465 0.0 0 0 51091.6 22525.4 " />
<path d="M51340.1 23375.1 A590.551 590.551 0.0 0 0 52159.8 23375.2 " />
<path d="M52159.8 22524.8 A590.551 590.551 0.0 0 0 51340.1 22524.9 " />
<path d="M52364 23436
L52364 23375
" />
<path d="M52364 22524
L52364 22463
" />
<path d="M65300 21476
L65300 22523
" />
<path d="M65300 21476
L58276 21476
" />
<path d="M58276 21476
L58276 22523
" />
<path d="M65300 22523
L58276 22523
" />
<path d="M66323 22523
L65800 22523
" />
<path d="M66323 22000
L66323 22523
" />
<path d="M51618 25237
L51618 24762
" />
<path d="M50901 25237
L50901 24762
" />
<path d="M80270 24347
L80270 23583
" />
<path d="M80270 26387
L80270 25552
" />
<path d="M85113 26387
L80270 26387
" />
<path d="M85113 25552
L85113 26387
" />
<path d="M85113 23583
L85113 24347
" />
<path d="M85113 21544
L85113 22379
" />
<path d="M80270 21544
L85113 21544
" />
<path d="M80270 22379
L80270 21544
" />
<circle cx="82731.5" cy="23981.5" r="1802.78" /> 
<path d="M80270 34327
L80270 33563
" />
<path d="M80270 36367
L80270 35532
" />
<path d="M85113 36367
L80270 36367
" />
<path d="M85113 35532
L85113 36367
" />
<path d="M85113 33563
L85113 34327
" />
<path d="M85113 31524
L85113 32359
" />
<path d="M80270 31524
L85113 31524
" />
<path d="M80270 32359
L80270 31524
" />
<circle cx="82731.5" cy="33961.5" r="1802.78" /> 
<circle cx="82731.5" cy="38950" r="1802.78" /> 
<path d="M80270 37347
L80270 36512
" />
<path d="M80270 36512
L85113 36512
" />
<path d="M85113 36512
L85113 37347
" />
<path d="M85113 38552
L85113 39316
" />
<path d="M85113 40520
L85113 41355
" />
<path d="M85113 41355
L80270 41355
" />
<path d="M80270 41355
L80270 40520
" />
<path d="M80270 39316
L80270 38552
" />
<path d="M80270 44316
L80270 43552
" />
<path d="M80270 46355
L80270 45520
" />
<path d="M85113 46355
L80270 46355
" />
<path d="M85113 45520
L85113 46355
" />
<path d="M85113 43552
L85113 44316
" />
<path d="M85113 41512
L85113 42347
" />
<path d="M80270 41512
L85113 41512
" />
<path d="M80270 42347
L80270 41512
" />
<circle cx="82731.5" cy="43950" r="1802.78" /> 
<circle cx="82731.5" cy="48950" r="1802.78" /> 
<path d="M80270 47347
L80270 46512
" />
<path d="M80270 46512
L85113 46512
" />
<path d="M85113 46512
L85113 47347
" />
<path d="M85113 48552
L85113 49316
" />
<path d="M85113 50520
L85113 51355
" />
<path d="M85113 51355
L80270 51355
" />
<path d="M80270 51355
L80270 50520
" />
<path d="M80270 49316
L80270 48552
" />
<path d="M80270 54316
L80270 53552
" />
<path d="M80270 56355
L80270 55520
" />
<path d="M85113 56355
L80270 56355
" />
<path d="M85113 55520
L85113 56355
" />
<path d="M85113 53552
L85113 54316
" />
<path d="M85113 51512
L85113 52347
" />
<path d="M80270 51512
L85113 51512
" />
<path d="M80270 52347
L80270 51512
" />
<circle cx="82731.5" cy="53950" r="1802.78" /> 
<path d="M61240 25167
L61240 24860
" />
<path d="M61240 24860
L60846 24860
" />
<path d="M54059 25167
L54059 24860
" />
<path d="M54059 24860
L54453 24860
" />
<path d="M61240 34996
L54059 34996
" />
<path d="M54059 34996
L54059 32468
" />
<path d="M61240 34996
L61240 32468
" />
<path d="M61240 32468
L61390 32468
" />
<path d="M77508 56612
L77508 57087
" />
<path d="M76791 56612
L76791 57087
" />
<path d="M64859 31657
L64859 31862
" />
<path d="M64300 31657
L64300 31862
" />
<path d="M64022 47459
L63817 47459
" />
<path d="M64022 46900
L63817 46900
" />
<path d="M78170 56997
L78170 57202
" />
<path d="M78729 56997
L78729 57202
" />
<path d="M65642 46900
L65437 46900
" />
<path d="M65642 47459
L65437 47459
" />
<path d="M74687 52191
L74212 52191
" />
<path d="M74687 52908
L74212 52908
" />
<path d="M74552 54129
L74347 54129
" />
<path d="M74552 53570
L74347 53570
" />
<path d="M61809 51425
L61396 51425
" />
<path d="M61809 52134
L61809 51425
" />
<path d="M60510 51425
L60923 51425
" />
<path d="M60510 52370
L60510 51425
" />
<path d="M61804 53604
L61804 54549
" />
<path d="M61804 54549
L61391 54549
" />
<path d="M60505 53840
L60505 54549
" />
<path d="M60505 54549
L60918 54549
" />
<path d="M63437 31858
L62962 31858
" />
<path d="M63437 31141
L62962 31141
" />
<path d="M50858 31837
L50858 31362
" />
<path d="M50141 31837
L50141 31362
" />
<path d="M67766 30414
L65994 30414
" />
<path d="M68258 31989
L68258 31398
" />
<path d="M65994 32973
L67766 32973
" />
<path d="M65502 31398
L65502 31989
" />
<path d="M73698 55057
L73698 55553
" />
<path d="M73698 57742
L73698 57246
" />
<path d="M75178 55057
L73698 55057
" />
<path d="M76064 57742
L73698 57742
" />
</g>
<g style="fill:#008484; fill-opacity:0.0; 
stroke:#008484; stroke-width:59.0551; stroke-opacity:1; 
stroke-linecap:round; stroke-linejoin:round;">
<path d="M65466 54898
L65466 54888
" />
<path d="M63833 54898
L63833 54856
" />
<path d="M63833 50901
L63833 50943
" />
<path d="M65466 50901
L65466 50943
" />
<path d="M65466 54898
L63833 54898
" />
<path d="M65466 50901
L63833 50901
" />
<path d="M65466 54888
L66008 54888
" />
</g>
<g style="fill:#008484; fill-opacity:0.0; 
stroke:#008484; stroke-width:47.2441; stroke-opacity:1; 
stroke-linecap:round; stroke-linejoin:round;">
<path d="M63510 47825
L65970 47825
" />
<path d="M63510 49814
L65970 49814
" />
<path d="M63510.3 47825.9 A994.094 994.094 0.0 0 0 63510.3 49814.1 " />
<path d="M65970.9 49814.1 A994.094 994.094 0.0 0 0 65970.9 47825.9 " />
</g>
<g style="fill:#008484; fill-opacity:0.0; 
stroke:#008484; stroke-width:59.0551; stroke-opacity:1; 
stroke-linecap:round; stroke-linejoin:round;">
<path d="M81178 58890
L80784 58890
L80784 58740
L80803 58703
L80821 58684
L80859 58665
L80915 58665
L80953 58684
L80971 58703
L80990 58740
L80990 58890
" />
<path d="M81178 58290
L81178 58515
" />
<path d="M81178 58403
L80784 58403
L80840 58440
L80878 58478
L80896 58515
" />
<path d="M82226 29109
L82282 29128
L82376 29128
L82414 29109
L82432 29090
L82451 29053
L82451 29015
L82432 28978
L82414 28959
L82376 28940
L82301 28921
L82264 28903
L82245 28884
L82226 28846
L82226 28809
L82245 28771
L82264 28753
L82301 28734
L82395 28734
L82451 28753
" />
<path d="M82582 28734
L82676 29128
L82751 28846
L82826 29128
L82920 28734
" />
<path d="M83051 28771
L83070 28753
L83107 28734
L83201 28734
L83238 28753
L83257 28771
L83276 28809
L83276 28846
L83257 28903
L83032 29128
L83276 29128
" />
<path d="M51678 30265
L51490 30396
" />
<path d="M51678 30490
L51284 30490
L51284 30340
L51303 30303
L51321 30284
L51359 30265
L51415 30265
L51453 30284
L51471 30303
L51490 30340
L51490 30490
" />
<path d="M51284 30134
L51284 29871
L51678 30040
" />
<path d="M51459 21958
L51459 21564
L51553 21564
L51609 21583
L51646 21620
L51665 21658
L51684 21733
L51684 21789
L51665 21864
L51646 21901
L51609 21939
L51553 21958
L51459 21958
" />
<path d="M51815 21564
L52059 21564
L51928 21714
L51984 21714
L52021 21733
L52040 21751
L52059 21789
L52059 21883
L52040 21920
L52021 21939
L51984 21958
L51871 21958
L51834 21939
L51815 21920
" />
<path d="M66674 22131
L66956 22131
L67012 22149
L67049 22187
L67068 22243
L67068 22281
" />
<path d="M67068 21737
L67068 21962
" />
<path d="M67068 21850
L66674 21850
L66731 21887
L66768 21925
L66787 21962
" />
<path d="M50721 25253
L50534 25384
" />
<path d="M50721 25478
L50327 25478
L50327 25328
L50346 25290
L50365 25271
L50402 25253
L50459 25253
L50496 25271
L50515 25290
L50534 25328
L50534 25478
" />
<path d="M50721 24878
L50721 25103
" />
<path d="M50721 24990
L50327 24990
L50384 25028
L50421 25065
L50440 25103
" />
<path d="M50721 24503
L50721 24728
" />
<path d="M50721 24615
L50327 24615
L50384 24653
L50421 24690
L50440 24728
" />
<path d="M82226 24189
L82282 24208
L82376 24208
L82414 24189
L82432 24170
L82451 24133
L82451 24095
L82432 24058
L82414 24039
L82376 24020
L82301 24001
L82264 23983
L82245 23964
L82226 23926
L82226 23889
L82245 23851
L82264 23833
L82301 23814
L82395 23814
L82451 23833
" />
<path d="M82582 23814
L82676 24208
L82751 23926
L82826 24208
L82920 23814
" />
<path d="M83276 24208
L83051 24208
" />
<path d="M83163 24208
L83163 23814
L83126 23870
L83088 23908
L83051 23926
" />
<path d="M82206 34109
L82262 34128
L82356 34128
L82394 34109
L82412 34090
L82431 34053
L82431 34015
L82412 33978
L82394 33959
L82356 33940
L82281 33921
L82244 33903
L82225 33884
L82206 33846
L82206 33809
L82225 33771
L82244 33753
L82281 33734
L82375 33734
L82431 33753
" />
<path d="M82562 33734
L82656 34128
L82731 33846
L82806 34128
L82900 33734
" />
<path d="M83012 33734
L83256 33734
L83125 33884
L83181 33884
L83218 33903
L83237 33921
L83256 33959
L83256 34053
L83237 34090
L83218 34109
L83181 34128
L83068 34128
L83031 34109
L83012 34090
" />
<path d="M82206 39069
L82262 39088
L82356 39088
L82394 39069
L82412 39050
L82431 39013
L82431 38975
L82412 38938
L82394 38919
L82356 38900
L82281 38881
L82244 38863
L82225 38844
L82206 38806
L82206 38769
L82225 38731
L82244 38713
L82281 38694
L82375 38694
L82431 38713
" />
<path d="M82562 38694
L82656 39088
L82731 38806
L82806 39088
L82900 38694
" />
<path d="M83218 38825
L83218 39088
" />
<path d="M83125 38675
L83031 38956
L83275 38956
" />
<path d="M82226 44109
L82282 44128
L82376 44128
L82414 44109
L82432 44090
L82451 44053
L82451 44015
L82432 43978
L82414 43959
L82376 43940
L82301 43921
L82264 43903
L82245 43884
L82226 43846
L82226 43809
L82245 43771
L82264 43753
L82301 43734
L82395 43734
L82451 43753
" />
<path d="M82582 43734
L82676 44128
L82751 43846
L82826 44128
L82920 43734
" />
<path d="M83257 43734
L83070 43734
L83051 43921
L83070 43903
L83107 43884
L83201 43884
L83238 43903
L83257 43921
L83276 43959
L83276 44053
L83257 44090
L83238 44109
L83201 44128
L83107 44128
L83070 44109
L83051 44090
" />
<path d="M82206 49109
L82262 49128
L82356 49128
L82394 49109
L82412 49090
L82431 49053
L82431 49015
L82412 48978
L82394 48959
L82356 48940
L82281 48921
L82244 48903
L82225 48884
L82206 48846
L82206 48809
L82225 48771
L82244 48753
L82281 48734
L82375 48734
L82431 48753
" />
<path d="M82562 48734
L82656 49128
L82731 48846
L82806 49128
L82900 48734
" />
<path d="M83218 48734
L83143 48734
L83106 48753
L83087 48771
L83050 48828
L83031 48903
L83031 49053
L83050 49090
L83068 49109
L83106 49128
L83181 49128
L83218 49109
L83237 49090
L83256 49053
L83256 48959
L83237 48921
L83218 48903
L83181 48884
L83106 48884
L83068 48903
L83050 48921
L83031 48959
" />
<path d="M82166 54129
L82222 54148
L82316 54148
L82354 54129
L82372 54110
L82391 54073
L82391 54035
L82372 53998
L82354 53979
L82316 53960
L82241 53941
L82204 53923
L82185 53904
L82166 53866
L82166 53829
L82185 53791
L82204 53773
L82241 53754
L82335 53754
L82391 53773
" />
<path d="M82522 53754
L82616 54148
L82691 53866
L82766 54148
L82860 53754
" />
<path d="M82972 53754
L83235 53754
L83066 54148
" />
<path d="M57584 27159
L57903 27159
L57940 27141
L57959 27122
L57978 27084
L57978 27009
L57959 26972
L57940 26953
L57903 26934
L57584 26934
" />
<path d="M57978 26541
L57978 26766
" />
<path d="M57978 26653
L57584 26653
L57640 26691
L57678 26728
L57696 26766
" />
<path d="M77340 55525
L77359 55544
L77378 55600
L77378 55638
L77359 55694
L77321 55731
L77284 55750
L77209 55769
L77153 55769
L77078 55750
L77040 55731
L77003 55694
L76984 55638
L76984 55600
L77003 55544
L77021 55525
" />
<path d="M77378 55150
L77378 55375
" />
<path d="M77378 55263
L76984 55263
L77040 55300
L77078 55338
L77096 55375
" />
<path d="M64740 30525
L64759 30544
L64778 30600
L64778 30638
L64759 30694
L64721 30731
L64684 30750
L64609 30769
L64553 30769
L64478 30750
L64440 30731
L64403 30694
L64384 30638
L64384 30600
L64403 30544
L64421 30525
" />
<path d="M64421 30375
L64403 30356
L64384 30319
L64384 30225
L64403 30188
L64421 30169
L64459 30150
L64496 30150
L64553 30169
L64778 30394
L64778 30150
" />
<path d="M63934 46620
L63915 46639
L63859 46658
L63821 46658
L63765 46639
L63728 46601
L63709 46564
L63690 46489
L63690 46433
L63709 46358
L63728 46320
L63765 46283
L63821 46264
L63859 46264
L63915 46283
L63934 46301
" />
<path d="M64065 46264
L64309 46264
L64178 46414
L64234 46414
L64271 46433
L64290 46451
L64309 46489
L64309 46583
L64290 46620
L64271 46639
L64234 46658
L64121 46658
L64084 46639
L64065 46620
" />
<path d="M78600 56005
L78619 56024
L78638 56080
L78638 56118
L78619 56174
L78581 56211
L78544 56230
L78469 56249
L78413 56249
L78338 56230
L78300 56211
L78263 56174
L78244 56118
L78244 56080
L78263 56024
L78281 56005
" />
<path d="M78375 55668
L78638 55668
" />
<path d="M78225 55761
L78506 55855
L78506 55611
" />
<path d="M65494 46600
L65475 46619
L65419 46638
L65381 46638
L65325 46619
L65288 46581
L65269 46544
L65250 46469
L65250 46413
L65269 46338
L65288 46300
L65325 46263
L65381 46244
L65419 46244
L65475 46263
L65494 46281
" />
<path d="M65850 46244
L65663 46244
L65644 46431
L65663 46413
L65700 46394
L65794 46394
L65831 46413
L65850 46431
L65869 46469
L65869 46563
L65850 46600
L65831 46619
L65794 46638
L65700 46638
L65663 46619
L65644 46600
" />
<path d="M75874 52740
L75855 52759
L75799 52778
L75761 52778
L75705 52759
L75668 52721
L75649 52684
L75630 52609
L75630 52553
L75649 52478
L75668 52440
L75705 52403
L75761 52384
L75799 52384
L75855 52403
L75874 52421
" />
<path d="M76211 52384
L76136 52384
L76099 52403
L76080 52421
L76043 52478
L76024 52553
L76024 52703
L76043 52740
L76061 52759
L76099 52778
L76174 52778
L76211 52759
L76230 52740
L76249 52703
L76249 52609
L76230 52571
L76211 52553
L76174 52534
L76099 52534
L76061 52553
L76043 52571
L76024 52609
" />
<path d="M75574 54020
L75555 54039
L75499 54058
L75461 54058
L75405 54039
L75368 54001
L75349 53964
L75330 53889
L75330 53833
L75349 53758
L75368 53720
L75405 53683
L75461 53664
L75499 53664
L75555 53683
L75574 53701
" />
<path d="M75705 53664
L75968 53664
L75799 54058
" />
<path d="M60391 51837
L60372 51874
L60335 51912
L60278 51968
L60260 52006
L60260 52043
" />
<path d="M60353 52024
L60335 52062
L60297 52099
L60222 52118
L60091 52118
L60016 52099
L59978 52062
L59960 52024
L59960 51949
L59978 51912
L60016 51874
L60091 51856
L60222 51856
L60297 51874
L60335 51912
L60353 51949
L60353 52024
" />
<path d="M60353 51481
L60353 51706
" />
<path d="M60353 51593
L59960 51593
L60016 51631
L60053 51668
L60072 51706
" />
<path d="M60315 54212
L60296 54250
L60259 54287
L60203 54344
L60184 54381
L60184 54419
" />
<path d="M60278 54400
L60259 54437
L60221 54475
L60146 54494
L60015 54494
L59940 54475
L59903 54437
L59884 54400
L59884 54325
L59903 54287
L59940 54250
L60015 54231
L60146 54231
L60221 54250
L60259 54287
L60278 54325
L60278 54400
" />
<path d="M59884 54100
L59884 53856
L60034 53987
L60034 53931
L60053 53894
L60071 53875
L60109 53856
L60203 53856
L60240 53875
L60259 53894
L60278 53931
L60278 54044
L60259 54081
L60240 54100
" />
<path d="M63174 30918
L63043 30730
" />
<path d="M62949 30918
L62949 30524
L63099 30524
L63136 30543
L63155 30561
L63174 30599
L63174 30655
L63155 30693
L63136 30711
L63099 30730
L62949 30730
" />
<path d="M63324 30561
L63343 30543
L63380 30524
L63474 30524
L63511 30543
L63530 30561
L63549 30599
L63549 30636
L63530 30693
L63305 30918
L63549 30918
" />
<path d="M50758 30245
L50570 30376
" />
<path d="M50758 30470
L50364 30470
L50364 30320
L50383 30283
L50401 30264
L50439 30245
L50495 30245
L50533 30264
L50551 30283
L50570 30320
L50570 30470
" />
<path d="M50533 30020
L50514 30058
L50495 30076
L50458 30095
L50439 30095
L50401 30076
L50383 30058
L50364 30020
L50364 29945
L50383 29908
L50401 29889
L50439 29870
L50458 29870
L50495 29889
L50514 29908
L50533 29945
L50533 30020
L50551 30058
L50570 30076
L50608 30095
L50683 30095
L50720 30076
L50739 30058
L50758 30020
L50758 29945
L50739 29908
L50720 29889
L50683 29870
L50608 29870
L50570 29889
L50551 29908
L50533 29945
" />
<path d="M66355 33526
L66411 33545
L66505 33545
L66543 33526
L66561 33508
L66580 33470
L66580 33433
L66561 33395
L66543 33376
L66505 33358
L66430 33339
L66393 33320
L66374 33301
L66355 33264
L66355 33226
L66374 33189
L66393 33170
L66430 33151
L66524 33151
L66580 33170
" />
<path d="M66711 33151
L66805 33545
L66880 33264
L66955 33545
L67049 33151
" />
<path d="M67217 33545
L67292 33545
L67330 33526
L67349 33508
L67386 33451
L67405 33376
L67405 33226
L67386 33189
L67367 33170
L67330 33151
L67255 33151
L67217 33170
L67199 33189
L67180 33226
L67180 33320
L67199 33358
L67217 33376
L67255 33395
L67330 33395
L67367 33376
L67386 33358
L67405 33320
" />
<path d="M74180 56184
L74180 56503
L74198 56540
L74217 56559
L74255 56578
L74330 56578
L74367 56559
L74386 56540
L74405 56503
L74405 56184
" />
<path d="M74573 56221
L74592 56203
L74629 56184
L74723 56184
L74761 56203
L74779 56221
L74798 56259
L74798 56296
L74779 56353
L74554 56578
L74798 56578
" />
<path d="M64350 55046
L64350 55365
L64368 55402
L64387 55421
L64425 55440
L64500 55440
L64537 55421
L64556 55402
L64575 55365
L64575 55046
" />
<path d="M64724 55046
L64968 55046
L64837 55196
L64893 55196
L64931 55215
L64949 55234
L64968 55271
L64968 55365
L64949 55402
L64931 55421
L64893 55440
L64781 55440
L64743 55421
L64724 55402
" />
<path d="M67172 48770
L67172 48958
" />
<path d="M67041 48564
L67172 48770
L67303 48564
" />
<path d="M67641 48958
L67416 48958
" />
<path d="M67528 48958
L67528 48564
L67491 48620
L67453 48658
L67416 48676
" />
<g >
</g>
</g>
<g style="fill:#000000; fill-opacity:0.0; 
stroke:#000000; stroke-width:59.0551; stroke-opacity:1; 
stroke-linecap:round; stroke-linejoin:round;">
</g>
<g style="fill:#C2C200; fill-opacity:0.0; 
stroke:#C2C200; stroke-width:59.0551; stroke-opacity:1; 
stroke-linecap:round; stroke-linejoin:round;">
<path d="M85900 22000 A600 600 0.0 0 0 85300 21400 " />
<path d="M85300 60800 A600 600 0.0 0 0 85900 60200 " />
<path d="M48000 21400 A600 600 0.0 0 0 47400 22000 " />
<path d="M47400 60200 A600 600 0.0 0 0 48000 60800 " />
<path d="M85900 22000
L85900 60200
" />
<path d="M48000 21400
L85300 21400
" />
<path d="M47400 60200
L47400 22000
" />
<path d="M48000 60800
L85300 60800
" />
<g >
</g>
<g >
</g>
<g >
</g>
<g >
</g>
<g >
</g>
<g >
</g>
<g >
</g>
<g >
</g>
<g >
</g>
<g >
</g>
<g >
</g>
<g >
</g>
<g >
</g>
<g >
</g>
<g >
</g>
<g >
</g>
<g >
</g>
<g >
</g>
<g >
</g>
<g >
</g>
<g >
</g>
<g >
</g>
<g >
</g>
<g >
</g>
<g >
</g>
<g >
</g>
<g >
</g>
<g >
</g>
<g >
</g>
<g >
</g>
<g >
</g>
<g >
</g>
<g >
</g>
</g> 
</svg>
