%TF.GenerationSoftware,KiCad,Pcbnew,5.1.2*%
%TF.CreationDate,2019-07-09T23:39:58+10:00*%
%TF.ProjectId,eNo,654e6f2e-6b69-4636-9164-5f7063625858,rev?*%
%TF.SameCoordinates,Original*%
%TF.FileFunction,Legend,Top*%
%TF.FilePolarity,Positive*%
%FSLAX46Y46*%
G04 Gerber Fmt 4.6, Leading zero omitted, Abs format (unit mm)*
G04 Created by KiCad (PCBNEW 5.1.2) date 2019-07-09 23:39:58*
%MOMM*%
%LPD*%
G04 APERTURE LIST*
%ADD10C,0.120000*%
%ADD11C,0.150000*%
G04 APERTURE END LIST*
D10*
X206974000Y-153594000D02*
X206974000Y-152094000D01*
X206974000Y-153594000D02*
X214234000Y-153594000D01*
X206974000Y-144094000D02*
X214234000Y-144094000D01*
X206974000Y-145594000D02*
X206974000Y-144094000D01*
X214717050Y-73562200D02*
G75*
G03X214717050Y-73562200I-4579050J0D01*
G01*
X203888000Y-69492200D02*
X203888000Y-67372200D01*
X203888000Y-67372200D02*
X216188000Y-67372200D01*
X216188000Y-67372200D02*
X216188000Y-69492200D01*
X216188000Y-72552200D02*
X216188000Y-74492200D01*
X216188000Y-77552200D02*
X216188000Y-79672200D01*
X216188000Y-79672200D02*
X203888000Y-79672200D01*
X203888000Y-79672200D02*
X203888000Y-77552200D01*
X203888000Y-74492200D02*
X203888000Y-72552200D01*
X129900000Y-80866064D02*
X129900000Y-79661936D01*
X131720000Y-80866064D02*
X131720000Y-79661936D01*
X129772665Y-59371608D02*
G75*
G03X133005000Y-59528516I1672335J1078608D01*
G01*
X129772665Y-57214392D02*
G75*
G02X133005000Y-57057484I1672335J-1078608D01*
G01*
X130403870Y-59372837D02*
G75*
G03X132485961Y-59373000I1041130J1079837D01*
G01*
X130403870Y-57213163D02*
G75*
G02X132485961Y-57213000I1041130J-1079837D01*
G01*
X133005000Y-59529000D02*
X133005000Y-59373000D01*
X133005000Y-57213000D02*
X133005000Y-57057000D01*
X165862000Y-54550000D02*
X165862000Y-57210000D01*
X165862000Y-54550000D02*
X148022000Y-54550000D01*
X148022000Y-54550000D02*
X148022000Y-57210000D01*
X165862000Y-57210000D02*
X148022000Y-57210000D01*
X168462000Y-57210000D02*
X167132000Y-57210000D01*
X168462000Y-55880000D02*
X168462000Y-57210000D01*
X131110400Y-64102064D02*
X131110400Y-62897936D01*
X129290400Y-64102064D02*
X129290400Y-62897936D01*
X203888000Y-61843000D02*
X203888000Y-59903000D01*
X203888000Y-67023000D02*
X203888000Y-64903000D01*
X216188000Y-67023000D02*
X203888000Y-67023000D01*
X216188000Y-64903000D02*
X216188000Y-67023000D01*
X216188000Y-59903000D02*
X216188000Y-61843000D01*
X216188000Y-54723000D02*
X216188000Y-56843000D01*
X203888000Y-54723000D02*
X216188000Y-54723000D01*
X203888000Y-56843000D02*
X203888000Y-54723000D01*
X214717050Y-60913000D02*
G75*
G03X214717050Y-60913000I-4579050J0D01*
G01*
X203888000Y-87192200D02*
X203888000Y-85252200D01*
X203888000Y-92372200D02*
X203888000Y-90252200D01*
X216188000Y-92372200D02*
X203888000Y-92372200D01*
X216188000Y-90252200D02*
X216188000Y-92372200D01*
X216188000Y-85252200D02*
X216188000Y-87192200D01*
X216188000Y-80072200D02*
X216188000Y-82192200D01*
X203888000Y-80072200D02*
X216188000Y-80072200D01*
X203888000Y-82192200D02*
X203888000Y-80072200D01*
X214717050Y-86262200D02*
G75*
G03X214717050Y-86262200I-4579050J0D01*
G01*
X214717050Y-98933000D02*
G75*
G03X214717050Y-98933000I-4579050J0D01*
G01*
X203888000Y-94863000D02*
X203888000Y-92743000D01*
X203888000Y-92743000D02*
X216188000Y-92743000D01*
X216188000Y-92743000D02*
X216188000Y-94863000D01*
X216188000Y-97923000D02*
X216188000Y-99863000D01*
X216188000Y-102923000D02*
X216188000Y-105043000D01*
X216188000Y-105043000D02*
X203888000Y-105043000D01*
X203888000Y-105043000D02*
X203888000Y-102923000D01*
X203888000Y-99863000D02*
X203888000Y-97923000D01*
X203888000Y-112563000D02*
X203888000Y-110623000D01*
X203888000Y-117743000D02*
X203888000Y-115623000D01*
X216188000Y-117743000D02*
X203888000Y-117743000D01*
X216188000Y-115623000D02*
X216188000Y-117743000D01*
X216188000Y-110623000D02*
X216188000Y-112563000D01*
X216188000Y-105443000D02*
X216188000Y-107563000D01*
X203888000Y-105443000D02*
X216188000Y-105443000D01*
X203888000Y-107563000D02*
X203888000Y-105443000D01*
X214717050Y-111633000D02*
G75*
G03X214717050Y-111633000I-4579050J0D01*
G01*
X214717050Y-124333000D02*
G75*
G03X214717050Y-124333000I-4579050J0D01*
G01*
X203888000Y-120263000D02*
X203888000Y-118143000D01*
X203888000Y-118143000D02*
X216188000Y-118143000D01*
X216188000Y-118143000D02*
X216188000Y-120263000D01*
X216188000Y-123323000D02*
X216188000Y-125263000D01*
X216188000Y-128323000D02*
X216188000Y-130443000D01*
X216188000Y-130443000D02*
X203888000Y-130443000D01*
X203888000Y-130443000D02*
X203888000Y-128323000D01*
X203888000Y-125263000D02*
X203888000Y-123323000D01*
X203888000Y-137963000D02*
X203888000Y-136023000D01*
X203888000Y-143143000D02*
X203888000Y-141023000D01*
X216188000Y-143143000D02*
X203888000Y-143143000D01*
X216188000Y-141023000D02*
X216188000Y-143143000D01*
X216188000Y-136023000D02*
X216188000Y-137963000D01*
X216188000Y-130843000D02*
X216188000Y-132963000D01*
X203888000Y-130843000D02*
X216188000Y-130843000D01*
X203888000Y-132963000D02*
X203888000Y-130843000D01*
X214717050Y-137033000D02*
G75*
G03X214717050Y-137033000I-4579050J0D01*
G01*
X155551000Y-63925000D02*
X155551000Y-63145000D01*
X155551000Y-63145000D02*
X154551000Y-63145000D01*
X137311000Y-63925000D02*
X137311000Y-63145000D01*
X137311000Y-63145000D02*
X138311000Y-63145000D01*
X155551000Y-88890000D02*
X137311000Y-88890000D01*
X137311000Y-88890000D02*
X137311000Y-82470000D01*
X155551000Y-88890000D02*
X155551000Y-82470000D01*
X155551000Y-82470000D02*
X155931000Y-82470000D01*
X196871000Y-143796936D02*
X196871000Y-145001064D01*
X195051000Y-143796936D02*
X195051000Y-145001064D01*
X164743200Y-80409148D02*
X164743200Y-80931652D01*
X163323200Y-80409148D02*
X163323200Y-80931652D01*
X162618052Y-120547200D02*
X162095548Y-120547200D01*
X162618052Y-119127200D02*
X162095548Y-119127200D01*
X198553000Y-144772748D02*
X198553000Y-145295252D01*
X199973000Y-144772748D02*
X199973000Y-145295252D01*
X166732852Y-119127200D02*
X166210348Y-119127200D01*
X166732852Y-120547200D02*
X166210348Y-120547200D01*
X189705064Y-132567000D02*
X188500936Y-132567000D01*
X189705064Y-134387000D02*
X188500936Y-134387000D01*
X189364252Y-137489000D02*
X188841748Y-137489000D01*
X189364252Y-136069000D02*
X188841748Y-136069000D01*
X156996400Y-130622000D02*
X155946400Y-130622000D01*
X156996400Y-132422000D02*
X156996400Y-130622000D01*
X153696400Y-130622000D02*
X154746400Y-130622000D01*
X153696400Y-133022000D02*
X153696400Y-130622000D01*
X156983700Y-136155500D02*
X156983700Y-138555500D01*
X156983700Y-138555500D02*
X155933700Y-138555500D01*
X153683700Y-136755500D02*
X153683700Y-138555500D01*
X153683700Y-138555500D02*
X154733700Y-138555500D01*
X161130064Y-80920000D02*
X159925936Y-80920000D01*
X161130064Y-79100000D02*
X159925936Y-79100000D01*
X129180000Y-80866064D02*
X129180000Y-79661936D01*
X127360000Y-80866064D02*
X127360000Y-79661936D01*
X172126400Y-77253200D02*
X167626400Y-77253200D01*
X173376400Y-81253200D02*
X173376400Y-79753200D01*
X167626400Y-83753200D02*
X172126400Y-83753200D01*
X166376400Y-79753200D02*
X166376400Y-81253200D01*
X187193000Y-139846000D02*
X187193000Y-141106000D01*
X187193000Y-146666000D02*
X187193000Y-145406000D01*
X190953000Y-139846000D02*
X187193000Y-139846000D01*
X193203000Y-146666000D02*
X187193000Y-146666000D01*
D11*
X166286000Y-139441000D02*
X166286000Y-139416000D01*
X162136000Y-139441000D02*
X162136000Y-139336000D01*
X162136000Y-129291000D02*
X162136000Y-129396000D01*
X166286000Y-129291000D02*
X166286000Y-129396000D01*
X166286000Y-139441000D02*
X162136000Y-139441000D01*
X166286000Y-129291000D02*
X162136000Y-129291000D01*
X166286000Y-139416000D02*
X167661000Y-139416000D01*
D10*
X161316200Y-121477800D02*
X167566200Y-121477800D01*
X161316200Y-126527800D02*
X167566200Y-126527800D01*
X161316200Y-126527800D02*
G75*
G02X161316200Y-121477800I0J2525000D01*
G01*
X167566200Y-126527800D02*
G75*
G03X167566200Y-121477800I0J2525000D01*
G01*
D11*
X206192380Y-149582095D02*
X205192380Y-149582095D01*
X205192380Y-149201142D01*
X205240000Y-149105904D01*
X205287619Y-149058285D01*
X205382857Y-149010666D01*
X205525714Y-149010666D01*
X205620952Y-149058285D01*
X205668571Y-149105904D01*
X205716190Y-149201142D01*
X205716190Y-149582095D01*
X206192380Y-148058285D02*
X206192380Y-148629714D01*
X206192380Y-148344000D02*
X205192380Y-148344000D01*
X205335238Y-148439238D01*
X205430476Y-148534476D01*
X205478095Y-148629714D01*
X208855466Y-73937761D02*
X208998323Y-73985380D01*
X209236419Y-73985380D01*
X209331657Y-73937761D01*
X209379276Y-73890142D01*
X209426895Y-73794904D01*
X209426895Y-73699666D01*
X209379276Y-73604428D01*
X209331657Y-73556809D01*
X209236419Y-73509190D01*
X209045942Y-73461571D01*
X208950704Y-73413952D01*
X208903085Y-73366333D01*
X208855466Y-73271095D01*
X208855466Y-73175857D01*
X208903085Y-73080619D01*
X208950704Y-73033000D01*
X209045942Y-72985380D01*
X209284038Y-72985380D01*
X209426895Y-73033000D01*
X209760228Y-72985380D02*
X209998323Y-73985380D01*
X210188800Y-73271095D01*
X210379276Y-73985380D01*
X210617371Y-72985380D01*
X210950704Y-73080619D02*
X210998323Y-73033000D01*
X211093561Y-72985380D01*
X211331657Y-72985380D01*
X211426895Y-73033000D01*
X211474514Y-73080619D01*
X211522133Y-73175857D01*
X211522133Y-73271095D01*
X211474514Y-73413952D01*
X210903085Y-73985380D01*
X211522133Y-73985380D01*
X131262380Y-76874666D02*
X130786190Y-77208000D01*
X131262380Y-77446095D02*
X130262380Y-77446095D01*
X130262380Y-77065142D01*
X130310000Y-76969904D01*
X130357619Y-76922285D01*
X130452857Y-76874666D01*
X130595714Y-76874666D01*
X130690952Y-76922285D01*
X130738571Y-76969904D01*
X130786190Y-77065142D01*
X130786190Y-77446095D01*
X130262380Y-76541333D02*
X130262380Y-75874666D01*
X131262380Y-76303238D01*
X130706904Y-55773580D02*
X130706904Y-54773580D01*
X130945000Y-54773580D01*
X131087857Y-54821200D01*
X131183095Y-54916438D01*
X131230714Y-55011676D01*
X131278333Y-55202152D01*
X131278333Y-55345009D01*
X131230714Y-55535485D01*
X131183095Y-55630723D01*
X131087857Y-55725961D01*
X130945000Y-55773580D01*
X130706904Y-55773580D01*
X131611666Y-54773580D02*
X132230714Y-54773580D01*
X131897380Y-55154533D01*
X132040238Y-55154533D01*
X132135476Y-55202152D01*
X132183095Y-55249771D01*
X132230714Y-55345009D01*
X132230714Y-55583104D01*
X132183095Y-55678342D01*
X132135476Y-55725961D01*
X132040238Y-55773580D01*
X131754523Y-55773580D01*
X131659285Y-55725961D01*
X131611666Y-55678342D01*
X169354380Y-56213333D02*
X170068666Y-56213333D01*
X170211523Y-56260952D01*
X170306761Y-56356190D01*
X170354380Y-56499047D01*
X170354380Y-56594285D01*
X170354380Y-55213333D02*
X170354380Y-55784761D01*
X170354380Y-55499047D02*
X169354380Y-55499047D01*
X169497238Y-55594285D01*
X169592476Y-55689523D01*
X169640095Y-55784761D01*
X128832780Y-64142857D02*
X128356590Y-64476190D01*
X128832780Y-64714285D02*
X127832780Y-64714285D01*
X127832780Y-64333333D01*
X127880400Y-64238095D01*
X127928019Y-64190476D01*
X128023257Y-64142857D01*
X128166114Y-64142857D01*
X128261352Y-64190476D01*
X128308971Y-64238095D01*
X128356590Y-64333333D01*
X128356590Y-64714285D01*
X128832780Y-63190476D02*
X128832780Y-63761904D01*
X128832780Y-63476190D02*
X127832780Y-63476190D01*
X127975638Y-63571428D01*
X128070876Y-63666666D01*
X128118495Y-63761904D01*
X128832780Y-62238095D02*
X128832780Y-62809523D01*
X128832780Y-62523809D02*
X127832780Y-62523809D01*
X127975638Y-62619047D01*
X128070876Y-62714285D01*
X128118495Y-62809523D01*
X208855466Y-61440961D02*
X208998323Y-61488580D01*
X209236419Y-61488580D01*
X209331657Y-61440961D01*
X209379276Y-61393342D01*
X209426895Y-61298104D01*
X209426895Y-61202866D01*
X209379276Y-61107628D01*
X209331657Y-61060009D01*
X209236419Y-61012390D01*
X209045942Y-60964771D01*
X208950704Y-60917152D01*
X208903085Y-60869533D01*
X208855466Y-60774295D01*
X208855466Y-60679057D01*
X208903085Y-60583819D01*
X208950704Y-60536200D01*
X209045942Y-60488580D01*
X209284038Y-60488580D01*
X209426895Y-60536200D01*
X209760228Y-60488580D02*
X209998323Y-61488580D01*
X210188800Y-60774295D01*
X210379276Y-61488580D01*
X210617371Y-60488580D01*
X211522133Y-61488580D02*
X210950704Y-61488580D01*
X211236419Y-61488580D02*
X211236419Y-60488580D01*
X211141180Y-60631438D01*
X211045942Y-60726676D01*
X210950704Y-60774295D01*
X208804666Y-86637761D02*
X208947523Y-86685380D01*
X209185619Y-86685380D01*
X209280857Y-86637761D01*
X209328476Y-86590142D01*
X209376095Y-86494904D01*
X209376095Y-86399666D01*
X209328476Y-86304428D01*
X209280857Y-86256809D01*
X209185619Y-86209190D01*
X208995142Y-86161571D01*
X208899904Y-86113952D01*
X208852285Y-86066333D01*
X208804666Y-85971095D01*
X208804666Y-85875857D01*
X208852285Y-85780619D01*
X208899904Y-85733000D01*
X208995142Y-85685380D01*
X209233238Y-85685380D01*
X209376095Y-85733000D01*
X209709428Y-85685380D02*
X209947523Y-86685380D01*
X210138000Y-85971095D01*
X210328476Y-86685380D01*
X210566571Y-85685380D01*
X210852285Y-85685380D02*
X211471333Y-85685380D01*
X211138000Y-86066333D01*
X211280857Y-86066333D01*
X211376095Y-86113952D01*
X211423714Y-86161571D01*
X211471333Y-86256809D01*
X211471333Y-86494904D01*
X211423714Y-86590142D01*
X211376095Y-86637761D01*
X211280857Y-86685380D01*
X210995142Y-86685380D01*
X210899904Y-86637761D01*
X210852285Y-86590142D01*
X208804666Y-99236161D02*
X208947523Y-99283780D01*
X209185619Y-99283780D01*
X209280857Y-99236161D01*
X209328476Y-99188542D01*
X209376095Y-99093304D01*
X209376095Y-98998066D01*
X209328476Y-98902828D01*
X209280857Y-98855209D01*
X209185619Y-98807590D01*
X208995142Y-98759971D01*
X208899904Y-98712352D01*
X208852285Y-98664733D01*
X208804666Y-98569495D01*
X208804666Y-98474257D01*
X208852285Y-98379019D01*
X208899904Y-98331400D01*
X208995142Y-98283780D01*
X209233238Y-98283780D01*
X209376095Y-98331400D01*
X209709428Y-98283780D02*
X209947523Y-99283780D01*
X210138000Y-98569495D01*
X210328476Y-99283780D01*
X210566571Y-98283780D01*
X211376095Y-98617114D02*
X211376095Y-99283780D01*
X211138000Y-98236161D02*
X210899904Y-98950447D01*
X211518952Y-98950447D01*
X208855466Y-112037761D02*
X208998323Y-112085380D01*
X209236419Y-112085380D01*
X209331657Y-112037761D01*
X209379276Y-111990142D01*
X209426895Y-111894904D01*
X209426895Y-111799666D01*
X209379276Y-111704428D01*
X209331657Y-111656809D01*
X209236419Y-111609190D01*
X209045942Y-111561571D01*
X208950704Y-111513952D01*
X208903085Y-111466333D01*
X208855466Y-111371095D01*
X208855466Y-111275857D01*
X208903085Y-111180619D01*
X208950704Y-111133000D01*
X209045942Y-111085380D01*
X209284038Y-111085380D01*
X209426895Y-111133000D01*
X209760228Y-111085380D02*
X209998323Y-112085380D01*
X210188800Y-111371095D01*
X210379276Y-112085380D01*
X210617371Y-111085380D01*
X211474514Y-111085380D02*
X210998323Y-111085380D01*
X210950704Y-111561571D01*
X210998323Y-111513952D01*
X211093561Y-111466333D01*
X211331657Y-111466333D01*
X211426895Y-111513952D01*
X211474514Y-111561571D01*
X211522133Y-111656809D01*
X211522133Y-111894904D01*
X211474514Y-111990142D01*
X211426895Y-112037761D01*
X211331657Y-112085380D01*
X211093561Y-112085380D01*
X210998323Y-112037761D01*
X210950704Y-111990142D01*
X208804666Y-124737761D02*
X208947523Y-124785380D01*
X209185619Y-124785380D01*
X209280857Y-124737761D01*
X209328476Y-124690142D01*
X209376095Y-124594904D01*
X209376095Y-124499666D01*
X209328476Y-124404428D01*
X209280857Y-124356809D01*
X209185619Y-124309190D01*
X208995142Y-124261571D01*
X208899904Y-124213952D01*
X208852285Y-124166333D01*
X208804666Y-124071095D01*
X208804666Y-123975857D01*
X208852285Y-123880619D01*
X208899904Y-123833000D01*
X208995142Y-123785380D01*
X209233238Y-123785380D01*
X209376095Y-123833000D01*
X209709428Y-123785380D02*
X209947523Y-124785380D01*
X210138000Y-124071095D01*
X210328476Y-124785380D01*
X210566571Y-123785380D01*
X211376095Y-123785380D02*
X211185619Y-123785380D01*
X211090380Y-123833000D01*
X211042761Y-123880619D01*
X210947523Y-124023476D01*
X210899904Y-124213952D01*
X210899904Y-124594904D01*
X210947523Y-124690142D01*
X210995142Y-124737761D01*
X211090380Y-124785380D01*
X211280857Y-124785380D01*
X211376095Y-124737761D01*
X211423714Y-124690142D01*
X211471333Y-124594904D01*
X211471333Y-124356809D01*
X211423714Y-124261571D01*
X211376095Y-124213952D01*
X211280857Y-124166333D01*
X211090380Y-124166333D01*
X210995142Y-124213952D01*
X210947523Y-124261571D01*
X210899904Y-124356809D01*
X208703066Y-137488561D02*
X208845923Y-137536180D01*
X209084019Y-137536180D01*
X209179257Y-137488561D01*
X209226876Y-137440942D01*
X209274495Y-137345704D01*
X209274495Y-137250466D01*
X209226876Y-137155228D01*
X209179257Y-137107609D01*
X209084019Y-137059990D01*
X208893542Y-137012371D01*
X208798304Y-136964752D01*
X208750685Y-136917133D01*
X208703066Y-136821895D01*
X208703066Y-136726657D01*
X208750685Y-136631419D01*
X208798304Y-136583800D01*
X208893542Y-136536180D01*
X209131638Y-136536180D01*
X209274495Y-136583800D01*
X209607828Y-136536180D02*
X209845923Y-137536180D01*
X210036400Y-136821895D01*
X210226876Y-137536180D01*
X210464971Y-136536180D01*
X210750685Y-136536180D02*
X211417352Y-136536180D01*
X210988780Y-137536180D01*
X146264380Y-68986304D02*
X147073904Y-68986304D01*
X147169142Y-68938685D01*
X147216761Y-68891066D01*
X147264380Y-68795828D01*
X147264380Y-68605352D01*
X147216761Y-68510114D01*
X147169142Y-68462495D01*
X147073904Y-68414876D01*
X146264380Y-68414876D01*
X147264380Y-67414876D02*
X147264380Y-67986304D01*
X147264380Y-67700590D02*
X146264380Y-67700590D01*
X146407238Y-67795828D01*
X146502476Y-67891066D01*
X146550095Y-67986304D01*
X196445142Y-141035066D02*
X196492761Y-141082685D01*
X196540380Y-141225542D01*
X196540380Y-141320780D01*
X196492761Y-141463638D01*
X196397523Y-141558876D01*
X196302285Y-141606495D01*
X196111809Y-141654114D01*
X195968952Y-141654114D01*
X195778476Y-141606495D01*
X195683238Y-141558876D01*
X195588000Y-141463638D01*
X195540380Y-141320780D01*
X195540380Y-141225542D01*
X195588000Y-141082685D01*
X195635619Y-141035066D01*
X196540380Y-140082685D02*
X196540380Y-140654114D01*
X196540380Y-140368400D02*
X195540380Y-140368400D01*
X195683238Y-140463638D01*
X195778476Y-140558876D01*
X195826095Y-140654114D01*
X164441142Y-77535066D02*
X164488761Y-77582685D01*
X164536380Y-77725542D01*
X164536380Y-77820780D01*
X164488761Y-77963638D01*
X164393523Y-78058876D01*
X164298285Y-78106495D01*
X164107809Y-78154114D01*
X163964952Y-78154114D01*
X163774476Y-78106495D01*
X163679238Y-78058876D01*
X163584000Y-77963638D01*
X163536380Y-77820780D01*
X163536380Y-77725542D01*
X163584000Y-77582685D01*
X163631619Y-77535066D01*
X163631619Y-77154114D02*
X163584000Y-77106495D01*
X163536380Y-77011257D01*
X163536380Y-76773161D01*
X163584000Y-76677923D01*
X163631619Y-76630304D01*
X163726857Y-76582685D01*
X163822095Y-76582685D01*
X163964952Y-76630304D01*
X164536380Y-77201733D01*
X164536380Y-76582685D01*
X162393333Y-118416342D02*
X162345714Y-118463961D01*
X162202857Y-118511580D01*
X162107619Y-118511580D01*
X161964761Y-118463961D01*
X161869523Y-118368723D01*
X161821904Y-118273485D01*
X161774285Y-118083009D01*
X161774285Y-117940152D01*
X161821904Y-117749676D01*
X161869523Y-117654438D01*
X161964761Y-117559200D01*
X162107619Y-117511580D01*
X162202857Y-117511580D01*
X162345714Y-117559200D01*
X162393333Y-117606819D01*
X162726666Y-117511580D02*
X163345714Y-117511580D01*
X163012380Y-117892533D01*
X163155238Y-117892533D01*
X163250476Y-117940152D01*
X163298095Y-117987771D01*
X163345714Y-118083009D01*
X163345714Y-118321104D01*
X163298095Y-118416342D01*
X163250476Y-118463961D01*
X163155238Y-118511580D01*
X162869523Y-118511580D01*
X162774285Y-118463961D01*
X162726666Y-118416342D01*
X199645542Y-142254266D02*
X199693161Y-142301885D01*
X199740780Y-142444742D01*
X199740780Y-142539980D01*
X199693161Y-142682838D01*
X199597923Y-142778076D01*
X199502685Y-142825695D01*
X199312209Y-142873314D01*
X199169352Y-142873314D01*
X198978876Y-142825695D01*
X198883638Y-142778076D01*
X198788400Y-142682838D01*
X198740780Y-142539980D01*
X198740780Y-142444742D01*
X198788400Y-142301885D01*
X198836019Y-142254266D01*
X199074114Y-141397123D02*
X199740780Y-141397123D01*
X198693161Y-141635219D02*
X199407447Y-141873314D01*
X199407447Y-141254266D01*
X166355733Y-118365542D02*
X166308114Y-118413161D01*
X166165257Y-118460780D01*
X166070019Y-118460780D01*
X165927161Y-118413161D01*
X165831923Y-118317923D01*
X165784304Y-118222685D01*
X165736685Y-118032209D01*
X165736685Y-117889352D01*
X165784304Y-117698876D01*
X165831923Y-117603638D01*
X165927161Y-117508400D01*
X166070019Y-117460780D01*
X166165257Y-117460780D01*
X166308114Y-117508400D01*
X166355733Y-117556019D01*
X167260495Y-117460780D02*
X166784304Y-117460780D01*
X166736685Y-117936971D01*
X166784304Y-117889352D01*
X166879542Y-117841733D01*
X167117638Y-117841733D01*
X167212876Y-117889352D01*
X167260495Y-117936971D01*
X167308114Y-118032209D01*
X167308114Y-118270304D01*
X167260495Y-118365542D01*
X167212876Y-118413161D01*
X167117638Y-118460780D01*
X166879542Y-118460780D01*
X166784304Y-118413161D01*
X166736685Y-118365542D01*
X192720933Y-133961142D02*
X192673314Y-134008761D01*
X192530457Y-134056380D01*
X192435219Y-134056380D01*
X192292361Y-134008761D01*
X192197123Y-133913523D01*
X192149504Y-133818285D01*
X192101885Y-133627809D01*
X192101885Y-133484952D01*
X192149504Y-133294476D01*
X192197123Y-133199238D01*
X192292361Y-133104000D01*
X192435219Y-133056380D01*
X192530457Y-133056380D01*
X192673314Y-133104000D01*
X192720933Y-133151619D01*
X193578076Y-133056380D02*
X193387600Y-133056380D01*
X193292361Y-133104000D01*
X193244742Y-133151619D01*
X193149504Y-133294476D01*
X193101885Y-133484952D01*
X193101885Y-133865904D01*
X193149504Y-133961142D01*
X193197123Y-134008761D01*
X193292361Y-134056380D01*
X193482838Y-134056380D01*
X193578076Y-134008761D01*
X193625695Y-133961142D01*
X193673314Y-133865904D01*
X193673314Y-133627809D01*
X193625695Y-133532571D01*
X193578076Y-133484952D01*
X193482838Y-133437333D01*
X193292361Y-133437333D01*
X193197123Y-133484952D01*
X193149504Y-133532571D01*
X193101885Y-133627809D01*
X191958933Y-137212342D02*
X191911314Y-137259961D01*
X191768457Y-137307580D01*
X191673219Y-137307580D01*
X191530361Y-137259961D01*
X191435123Y-137164723D01*
X191387504Y-137069485D01*
X191339885Y-136879009D01*
X191339885Y-136736152D01*
X191387504Y-136545676D01*
X191435123Y-136450438D01*
X191530361Y-136355200D01*
X191673219Y-136307580D01*
X191768457Y-136307580D01*
X191911314Y-136355200D01*
X191958933Y-136402819D01*
X192292266Y-136307580D02*
X192958933Y-136307580D01*
X192530361Y-137307580D01*
X153394019Y-131667238D02*
X153346400Y-131762476D01*
X153251161Y-131857714D01*
X153108304Y-132000571D01*
X153060685Y-132095809D01*
X153060685Y-132191047D01*
X153298780Y-132143428D02*
X153251161Y-132238666D01*
X153155923Y-132333904D01*
X152965447Y-132381523D01*
X152632114Y-132381523D01*
X152441638Y-132333904D01*
X152346400Y-132238666D01*
X152298780Y-132143428D01*
X152298780Y-131952952D01*
X152346400Y-131857714D01*
X152441638Y-131762476D01*
X152632114Y-131714857D01*
X152965447Y-131714857D01*
X153155923Y-131762476D01*
X153251161Y-131857714D01*
X153298780Y-131952952D01*
X153298780Y-132143428D01*
X153298780Y-130762476D02*
X153298780Y-131333904D01*
X153298780Y-131048190D02*
X152298780Y-131048190D01*
X152441638Y-131143428D01*
X152536876Y-131238666D01*
X152584495Y-131333904D01*
X153201619Y-137700738D02*
X153154000Y-137795976D01*
X153058761Y-137891214D01*
X152915904Y-138034071D01*
X152868285Y-138129309D01*
X152868285Y-138224547D01*
X153106380Y-138176928D02*
X153058761Y-138272166D01*
X152963523Y-138367404D01*
X152773047Y-138415023D01*
X152439714Y-138415023D01*
X152249238Y-138367404D01*
X152154000Y-138272166D01*
X152106380Y-138176928D01*
X152106380Y-137986452D01*
X152154000Y-137891214D01*
X152249238Y-137795976D01*
X152439714Y-137748357D01*
X152773047Y-137748357D01*
X152963523Y-137795976D01*
X153058761Y-137891214D01*
X153106380Y-137986452D01*
X153106380Y-138176928D01*
X152106380Y-137415023D02*
X152106380Y-136795976D01*
X152487333Y-137129309D01*
X152487333Y-136986452D01*
X152534952Y-136891214D01*
X152582571Y-136843595D01*
X152677809Y-136795976D01*
X152915904Y-136795976D01*
X153011142Y-136843595D01*
X153058761Y-136891214D01*
X153106380Y-136986452D01*
X153106380Y-137272166D01*
X153058761Y-137367404D01*
X153011142Y-137415023D01*
X160462933Y-78531980D02*
X160129600Y-78055790D01*
X159891504Y-78531980D02*
X159891504Y-77531980D01*
X160272457Y-77531980D01*
X160367695Y-77579600D01*
X160415314Y-77627219D01*
X160462933Y-77722457D01*
X160462933Y-77865314D01*
X160415314Y-77960552D01*
X160367695Y-78008171D01*
X160272457Y-78055790D01*
X159891504Y-78055790D01*
X160843885Y-77627219D02*
X160891504Y-77579600D01*
X160986742Y-77531980D01*
X161224838Y-77531980D01*
X161320076Y-77579600D01*
X161367695Y-77627219D01*
X161415314Y-77722457D01*
X161415314Y-77817695D01*
X161367695Y-77960552D01*
X160796266Y-78531980D01*
X161415314Y-78531980D01*
X128925580Y-76823866D02*
X128449390Y-77157200D01*
X128925580Y-77395295D02*
X127925580Y-77395295D01*
X127925580Y-77014342D01*
X127973200Y-76919104D01*
X128020819Y-76871485D01*
X128116057Y-76823866D01*
X128258914Y-76823866D01*
X128354152Y-76871485D01*
X128401771Y-76919104D01*
X128449390Y-77014342D01*
X128449390Y-77395295D01*
X128354152Y-76252438D02*
X128306533Y-76347676D01*
X128258914Y-76395295D01*
X128163676Y-76442914D01*
X128116057Y-76442914D01*
X128020819Y-76395295D01*
X127973200Y-76347676D01*
X127925580Y-76252438D01*
X127925580Y-76061961D01*
X127973200Y-75966723D01*
X128020819Y-75919104D01*
X128116057Y-75871485D01*
X128163676Y-75871485D01*
X128258914Y-75919104D01*
X128306533Y-75966723D01*
X128354152Y-76061961D01*
X128354152Y-76252438D01*
X128401771Y-76347676D01*
X128449390Y-76395295D01*
X128544628Y-76442914D01*
X128735104Y-76442914D01*
X128830342Y-76395295D01*
X128877961Y-76347676D01*
X128925580Y-76252438D01*
X128925580Y-76061961D01*
X128877961Y-75966723D01*
X128830342Y-75919104D01*
X128735104Y-75871485D01*
X128544628Y-75871485D01*
X128449390Y-75919104D01*
X128401771Y-75966723D01*
X128354152Y-76061961D01*
X168543066Y-85157961D02*
X168685923Y-85205580D01*
X168924019Y-85205580D01*
X169019257Y-85157961D01*
X169066876Y-85110342D01*
X169114495Y-85015104D01*
X169114495Y-84919866D01*
X169066876Y-84824628D01*
X169019257Y-84777009D01*
X168924019Y-84729390D01*
X168733542Y-84681771D01*
X168638304Y-84634152D01*
X168590685Y-84586533D01*
X168543066Y-84491295D01*
X168543066Y-84396057D01*
X168590685Y-84300819D01*
X168638304Y-84253200D01*
X168733542Y-84205580D01*
X168971638Y-84205580D01*
X169114495Y-84253200D01*
X169447828Y-84205580D02*
X169685923Y-85205580D01*
X169876400Y-84491295D01*
X170066876Y-85205580D01*
X170304971Y-84205580D01*
X170733542Y-85205580D02*
X170924019Y-85205580D01*
X171019257Y-85157961D01*
X171066876Y-85110342D01*
X171162114Y-84967485D01*
X171209733Y-84777009D01*
X171209733Y-84396057D01*
X171162114Y-84300819D01*
X171114495Y-84253200D01*
X171019257Y-84205580D01*
X170828780Y-84205580D01*
X170733542Y-84253200D01*
X170685923Y-84300819D01*
X170638304Y-84396057D01*
X170638304Y-84634152D01*
X170685923Y-84729390D01*
X170733542Y-84777009D01*
X170828780Y-84824628D01*
X171019257Y-84824628D01*
X171114495Y-84777009D01*
X171162114Y-84729390D01*
X171209733Y-84634152D01*
X188417295Y-142708380D02*
X188417295Y-143517904D01*
X188464914Y-143613142D01*
X188512533Y-143660761D01*
X188607771Y-143708380D01*
X188798247Y-143708380D01*
X188893485Y-143660761D01*
X188941104Y-143613142D01*
X188988723Y-143517904D01*
X188988723Y-142708380D01*
X189417295Y-142803619D02*
X189464914Y-142756000D01*
X189560152Y-142708380D01*
X189798247Y-142708380D01*
X189893485Y-142756000D01*
X189941104Y-142803619D01*
X189988723Y-142898857D01*
X189988723Y-142994095D01*
X189941104Y-143136952D01*
X189369676Y-143708380D01*
X189988723Y-143708380D01*
X163449095Y-139818380D02*
X163449095Y-140627904D01*
X163496714Y-140723142D01*
X163544333Y-140770761D01*
X163639571Y-140818380D01*
X163830047Y-140818380D01*
X163925285Y-140770761D01*
X163972904Y-140723142D01*
X164020523Y-140627904D01*
X164020523Y-139818380D01*
X164401476Y-139818380D02*
X165020523Y-139818380D01*
X164687190Y-140199333D01*
X164830047Y-140199333D01*
X164925285Y-140246952D01*
X164972904Y-140294571D01*
X165020523Y-140389809D01*
X165020523Y-140627904D01*
X164972904Y-140723142D01*
X164925285Y-140770761D01*
X164830047Y-140818380D01*
X164544333Y-140818380D01*
X164449095Y-140770761D01*
X164401476Y-140723142D01*
X170618209Y-123877390D02*
X170618209Y-124353580D01*
X170284876Y-123353580D02*
X170618209Y-123877390D01*
X170951542Y-123353580D01*
X171808685Y-124353580D02*
X171237257Y-124353580D01*
X171522971Y-124353580D02*
X171522971Y-123353580D01*
X171427733Y-123496438D01*
X171332495Y-123591676D01*
X171237257Y-123639295D01*
M02*
