M48
; DRILL file {KiCad 5.1.2} date Tue 09 Jul 2019 11:40:04 PM AEST
; FORMAT={-:-/ absolute / inch / decimal}
; #@! TF.CreationDate,2019-07-09T23:40:04+10:00
; #@! TF.GenerationSoftware,Kicad,Pcbnew,5.1.2
FMAT,2
INCH
T1C0.0157
T2C0.0197
T3C0.0315
T4C0.0354
T5C0.0394
T6C0.0433
T7C0.0472
T8C0.0256
T9C0.0866
%
G90
G05
T1
X5.13Y-2.624
X5.3Y-2.672
X5.51Y-2.6
X5.55Y-2.65
X5.59Y-2.7
X5.635Y-2.75
X5.705Y-2.75
X5.854Y-5.48
X5.97Y-2.98
X5.982Y-3.15
X6.118Y-5.014
X6.186Y-3.15
X6.26Y-4.972
X6.26Y-5.088
X6.33Y-3.28
X6.451Y-5.465
X6.458Y-3.28
X6.484Y-3.076
X6.657Y-5.315
X7.435Y-5.09
X7.4854Y-5.5662
X7.55Y-5.165
X8.2139Y-5.7498
X8.2139Y-5.8128
X8.2139Y-5.8443
X8.2139Y-5.8757
X8.2139Y-5.9072
X8.2139Y-5.9702
X8.2415Y-5.7655
X8.2415Y-5.797
X8.2415Y-5.8285
X8.2415Y-5.8915
X8.2415Y-5.923
X8.2415Y-5.9545
T3
X6.378Y-4.882
X6.4741Y-4.882
X6.5701Y-4.882
T4
X5.125Y-2.295
X5.225Y-2.295
T5
X5.88Y-2.2
X5.98Y-2.2
X6.08Y-2.2
X6.18Y-2.2
X6.28Y-2.2
X6.38Y-2.2
X6.48Y-2.2
X6.58Y-2.2
T6
X6.5601Y-3.0808
X6.5601Y-3.258
X6.816Y-3.0808
X6.816Y-3.258
T7
X8.0231Y-4.795
X8.0231Y-4.9919
X8.5153Y-4.795
X8.5153Y-4.9919
X8.0231Y-2.2981
X8.0231Y-2.495
X8.5153Y-2.2981
X8.5153Y-2.495
X8.0231Y-2.7961
X8.0231Y-2.993
X8.5153Y-2.7961
X8.5153Y-2.993
X8.0231Y-4.295
X8.0231Y-4.4919
X8.5153Y-4.295
X8.5153Y-4.4919
X8.0231Y-3.795
X8.0231Y-3.9919
X8.5153Y-3.795
X8.5153Y-3.9919
X8.0231Y-5.295
X8.0231Y-5.4919
X8.5153Y-5.295
X8.5153Y-5.4919
X8.0231Y-3.2961
X8.0231Y-3.493
X8.5153Y-3.2961
X8.5153Y-3.493
T8
X8.1883Y-6.0017
T9
X7.655Y-2.2
X7.655Y-6.02
X4.8Y-6.02
X4.8Y-2.2
T2
G00X8.2257Y-5.6974
M15
G01X8.2494Y-5.6974
M16
G05
G00X8.2257Y-6.0226
M15
G01X8.2494Y-6.0226
M16
G05
G00X8.46Y-5.6832
M15
G01X8.4836Y-5.6832
M16
G05
G00X8.46Y-6.0368
M15
G01X8.4836Y-6.0368
M16
G05
T8
G00X8.1883Y-5.7242
M15
G01X8.1883Y-5.7124
M16
G05
T0
M30
